<?xml version="1.0" standalone="no"?>
<!DOCTYPE svg PUBLIC "-//W3C//DTD SVG 1.1//EN" "http://www.w3.org/Graphics/SVG/1.1/DTD/svg11.dtd" >
<!--
2013-9-30: Created.
-->
<svg>
<metadata>
Created by iconfont
</metadata>
<defs>

<font id="obicon" horiz-adv-x="1024" >
  <font-face
    font-family="obicon"
    font-weight="500"
    font-stretch="normal"
    units-per-em="1024"
    ascent="896"
    descent="-128"
  />
    <missing-glyph />
    
    <glyph glyph-name="socket-square" unicode="&#58937;" d="M153.842831-25.322479000000044l716.314339 0c28.14092 0 51.16531 23.024389 51.16531 51.16531l0 716.314339c0 28.14092-23.024389 51.16531-51.16531 51.16531l-716.314339 0c-28.14092 0-51.16531-23.024389-51.16531-51.16531l0-716.314339C102.677521-2.298090000000002 125.70191-25.322479000000044 153.842831-25.322479000000044zM140.028197 727.318206c0 15.758915 12.893658 28.652574 28.652574 28.652574l686.637436 0c15.758915 0 28.652574-12.893658 28.652574-28.652574l0-686.637436c0-15.758915-12.893658-28.652574-28.652574-28.652574l-686.637436 0c-15.758915 0-28.652574 12.893658-28.652574 28.652574L140.028197 727.318206zM524.189623 439.110155l-24.379247 0c-10.601452 0-19.274996 8.673543-19.274996 19.274996l0 170.193217c0 10.601452 8.673543 19.274996 19.274996 19.274996l24.379247 0c10.601452 0 19.274996-8.674567 19.274996-19.274996l0-170.193217C543.464619 447.783699 534.791076 439.110155 524.189623 439.110155zM656.57577 439.110155l-24.379247 0c-10.601452 0-19.274996 8.673543-19.274996 19.274996l0 170.193217c0 10.601452 8.673543 19.274996 19.274996 19.274996l24.379247 0c10.601452 0 19.274996-8.674567 19.274996-19.274996l0-170.193217C675.851788 447.783699 667.177222 439.110155 656.57577 439.110155zM613.841479 532.282185l0 22.400173c0 30.563086 25.006534 55.56962 55.56962 55.56962l12.880355 0c30.563086 0 55.56962-25.006534 55.56962-55.56962l0-22.400173c0-30.563086-25.006534-55.56962-55.56962-55.56962l-12.880355 0C638.848013 476.712565 613.841479 501.719098 613.841479 532.282185zM367.423207 647.854387l24.379247 0c10.601452 0 19.274996-8.674567 19.274996-19.274996l0-170.193217c0-10.601452-8.673543-19.274996-19.274996-19.274996l-24.379247 0c-10.601452 0-19.274996 8.673543-19.274996 19.274996l0 170.193217C348.148212 639.1798200000001 356.821755 647.854387 367.423207 647.854387zM410.157497 554.682357l0-22.400173c0-30.563086-25.006534-55.56962-55.56962-55.56962l-12.880355 0c-30.563086 0-55.56962 25.006534-55.56962 55.56962l0 22.400173c0 30.563086 25.006534 55.56962 55.56962 55.56962l12.880355 0C385.150964 610.250954 410.157497 585.245444 410.157497 554.682357zM420.260599 154.77020200000004l-21.112853-12.189623c-9.181103-5.300726-21.029966-2.12643-26.330692 7.055696l-85.096097 147.391908c-5.300726 9.181103-2.12643 21.029966 7.055696 26.330692l21.112853 12.189623c9.181103 5.300726 21.029966 2.12643 26.330692-7.055696l85.096097-147.391908C432.617022 171.918767 429.441703 160.07092799999998 420.260599 154.77020200000004zM603.738377 154.77020200000004l21.112853-12.189623c9.181103-5.300726 21.029966-2.12643 26.330692 7.055696l85.09712 147.391908c5.300726 9.181103 2.125407 21.029966-7.055696 26.330692l-21.112853 12.189623c-9.181103 5.300726-21.029966 2.12643-26.330692-7.055696l-85.096097-147.391908C591.382978 171.918767 594.557274 160.07092799999998 603.738377 154.77020200000004z"  horiz-adv-x="1024" />

    
    <glyph glyph-name="curtain" unicode="&#58939;" d="M408.822741 528.296642c44.568522 61.597172 70.148865 122.883112 82.580711 158.1751 5.227457 14.841841-5.819206 30.390095-21.555836 30.390095l-156.12343 0c-10.586982 0-19.803113-7.264793-22.21925-17.572281-15.30664-65.275639-110.037656-204.634556-141.36554-317.182538-37.868859-136.04799 30.635804-295.599059 41.274999-365.836994 1.698463-11.21354 11.258586-19.545119 22.600099-19.545119l76.867979 0c14.236783 0 25.029546 12.881289 22.479292 26.887719-3.894486 21.395102-12.32742 53.879865-30.54571 91.262425-39.531489 81.115672-109.041511 182.41121-97.868923 217.79022C194.160191 361.84115299999996 322.828724 409.445203 408.822741 528.296642zM144.202454 109.72949600000004c-19.78878 103.726009-22.236655 226.187321-7.275031 289.38672 24.676339 104.241998 98.701262 219.033097 113.213444 290.463744 2.866604 14.109833-8.009086 27.280854-22.406603 27.280854l-117.302449 0c-12.61408 0-22.839665-10.225585-22.839665-22.839665l0-674.457601c0-12.61408 10.225585-22.839665 22.839665-22.839665l33.747093 0c14.913506 0 25.794315 14.047382 22.128133 28.503255C160.423336 48.422056 150.535601 76.53115400000002 144.202454 109.72949600000004zM615.616464 528.296642c-44.568522 61.597172-70.148865 122.883112-82.580711 158.1751-5.227457 14.841841 5.819206 30.390095 21.555836 30.390095l156.12343 0c10.586982 0 19.803113-7.264793 22.21925-17.572281 15.30664-65.275639 110.037656-204.634556 141.36554-317.182538 37.868859-136.04799-30.635804-295.599059-41.274999-365.836994-1.698463-11.21354-11.258586-19.545119-22.600099-19.545119l-76.867979 0c-14.236783 0-25.029546 12.881289-22.479292 26.887719 3.894486 21.395102 12.32742 53.879865 30.54571 91.262425 39.531489 81.115672 109.041511 182.41121 97.868923 217.79022C830.279014 361.84115299999996 701.610481 409.445203 615.616464 528.296642zM880.236751 109.72949600000004c19.78878 103.726009 22.236655 226.187321 7.275031 289.38672-24.676339 104.241998-98.701262 219.033097-113.213444 290.463744-2.866604 14.109833 8.009086 27.280854 22.407627 27.280854l117.302449 0c12.61408 0 22.839665-10.225585 22.839665-22.839665l0-674.457601c0-12.61408-10.225585-22.839665-22.839665-22.839665l-33.747093 0c-14.913506 0-25.794315 14.047382-22.128133 28.503255C864.014845 48.422056 873.90258 76.53115400000002 880.236751 109.72949600000004zM916.371315 730.322589l-808.304449 0c-11.261658 0-20.475741 9.214083-20.475741 20.475741l0 0c0 11.261658 9.214083 20.475741 20.475741 20.475741l808.304449 0c11.261658 0 20.475741-9.214083 20.475741-20.475741l0 0C936.847056 739.536672 927.632972 730.322589 916.371315 730.322589z"  horiz-adv-x="1025" />

    
    <glyph glyph-name="ac-fill" unicode="&#58954;" d="M951.97351 541.372451c0 14.518324-11.877977 26.396302-26.396302 26.396302l-825.616688 0c-14.518324 0-26.396302-11.879001-26.396302-26.396302l0-205.082975c0-0.754531 0.039928-1.499848 0.102379-2.237998-0.061427-1.620655-0.102379-3.247453-0.102379-4.88244l0 0c0-70.915682 58.022107-128.937789 128.937789-128.937789l620.533713 0c70.915682 0 128.937789 58.022107 128.937789 128.937789l0 0c0 1.634988-0.040951 3.261786-0.102379 4.88244 0.063475 0.739174 0.102379 1.483467 0.102379 2.237998L951.97351 541.372451zM864.974133 233.16443000000004c-19.824612-11.637387-44.782493-18.598116-71.816614-18.598116L232.380209 214.56631400000003c-27.034121 0-51.993025 6.960728-71.816614 18.598116-4.676659 2.745797-1.455825 9.87545 3.729656 8.28858 19.430454-5.948203 43.597972-9.486411 69.712732-9.486411l557.526786 0c26.11476 0 50.282277 3.538208 69.712732 9.486411C866.429959 243.03988000000004 869.650793 235.90920300000005 864.974133 233.16443000000004zM904.738022 296.46927800000003c-3.76856-4.991986-8.647929-11.895382-13.948075-13.759698-7.398909-2.60349-32.888135-0.786268-32.888135-0.786268l-207.577944 0-272.770656 0-207.577944 0c0 0-25.489226-1.818246-32.888135 0.786268-5.300146 1.86534-10.179515 8.767712-13.948075 13.759698-3.60373 4.773919-4.003007 10.555245-0.665462 15.430518 2.261546 3.303761 6.172412 6.135556 12.935549 6.135556l242.144066 0 272.770656 0 242.144066 0c6.762113 0 10.674004-2.831795 12.935549-6.135556C908.740006 307.02452300000004 908.340729 301.243197 904.738022 296.46927800000003zM917.106394 374.27402300000006c0-18.018652-14.742534-32.761186-32.761186-32.761186l-743.152688 0c-18.018652 0-32.761186 14.742534-32.761186 32.761186l0 137.187465c0 18.018652 14.742534 32.761186 32.761186 32.761186l743.152688 0c18.018652 0 32.761186-14.742534 32.761186-32.761186L917.106394 374.27402300000006zM869.060068 529.99101l-712.582407 0c-17.448403 0-31.724089-14.275687-31.724089-31.724089l0-115.480108c0-17.448403 14.275687-31.724089 31.724089-31.724089l712.582407 0c17.448403 0 31.724089 14.275687 31.724089 31.724089l0 115.480108C900.784157 515.714299 886.50847 529.99101 869.060068 529.99101zM730.681938 383.06323499999996c-8.481052 0-15.355782 6.87473-15.355782 15.355782 0 8.481052 6.87473 15.355782 15.355782 15.355782 8.481052 0 15.355782-6.875754 15.355782-15.355782C746.038744 389.938989 739.16299 383.06323499999996 730.681938 383.06323499999996zM789.034729 383.06323499999996c-8.481052 0-15.355782 6.87473-15.355782 15.355782 0 8.481052 6.87473 15.355782 15.355782 15.355782s15.355782-6.875754 15.355782-15.355782C804.391535 389.938989 797.515781 383.06323499999996 789.034729 383.06323499999996zM855.833763 374.618015c-13.145426 0-23.802025 10.656599-23.802025 23.802025 0 13.145426 10.656599 23.802025 23.802025 23.802025 13.145426 0 23.802025-10.656599 23.802025-23.802025C879.635788 385.274615 868.979188 374.618015 855.833763 374.618015z"  horiz-adv-x="1025" />

    
    <glyph glyph-name="socket-line" unicode="&#58983;" d="M514.412956 758.625236c50.634214 0 99.733469-9.908674 145.935744-29.449729 44.64378-18.883069 84.746126-45.922912 119.192659-80.369446 34.446533-34.446533 61.486376-74.54888 80.369446-119.192659 19.541055-46.201252 29.449729-95.30153 29.449729-145.935744s-9.908674-99.733469-29.449729-145.935744c-18.883069-44.64378-45.922912-84.746126-80.369446-119.192659-34.446533-34.446533-74.54888-61.486376-119.192659-80.369446-46.202275-19.542078-95.30153-29.449729-145.935744-29.449729s-99.733469 9.908674-145.935744 29.449729c-44.64378 18.883069-84.746126 45.922912-119.192659 80.369446-34.446533 34.446533-61.486376 74.54888-80.369446 119.192659-19.542078 46.201252-29.449729 95.30153-29.449729 145.935744s9.908674 99.733469 29.449729 145.935744c18.883069 44.64378 45.922912 84.746126 80.369446 119.192659 34.446533 34.446533 74.54888 61.486376 119.192659 80.369446C414.678464 748.7165620000001 463.778742 758.625236 514.412956 758.625236M514.412956 795.464259c-227.423663 0-411.786601-184.362938-411.786601-411.786601s184.362938-411.786601 411.786601-411.786601c227.423663 0 411.786601 184.362938 411.786601 411.786601S741.836619 795.464259 514.412956 795.464259L514.412956 795.464259zM525.612019 616.978169l-22.399149 0c-9.740852 0-17.71036-7.969509-17.71036-17.709337l0-156.373467c0-9.740852 7.969509-17.71036 17.71036-17.71036l22.399149 0c9.740852 0 17.71036 7.969509 17.71036 17.71036l0 156.373467C543.322379 609.00866 535.352871 616.978169 525.612019 616.978169zM624.849184 425.186028l22.400173 0c9.740852 0 17.71036 7.969509 17.71036 17.71036l0 16.839527 5.916756 0c28.081569 0 51.056839 22.975271 51.056839 51.056839l0 20.580734c0 28.081569-22.975271 51.056839-51.056839 51.056839l-5.916756 0 0 16.839527c0 9.740852-7.969509 17.709337-17.71036 17.709337l-22.400173 0c-9.740852 0-17.709337-7.969509-17.709337-17.709337l0-156.373467C607.138824 433.155537 615.108333 425.186028 624.849184 425.186028zM357.949438 459.734892l5.916756 0 0-16.839527c0-9.740852 7.969509-17.71036 17.71036-17.71036l22.400173 0c9.740852 0 17.71036 7.969509 17.71036 17.71036l0 156.373467c0 9.740852-7.969509 17.709337-17.71036 17.709337l-22.400173 0c-9.740852 0-17.71036-7.969509-17.71036-17.709337l0-16.839527-5.916756 0c-28.081569 0-51.056839-22.975271-51.056839-51.056839l0-20.580734C306.892599 482.711186 329.86787 459.734892 357.949438 459.734892zM358.419136 323.55023300000005c-4.870938 8.436136-15.756869 11.352559-24.193005 6.481621l-19.398816-11.200086c-8.435113-4.869914-11.352559-15.756869-6.482645-24.191982l78.186733-135.422296c4.869914-8.436136 15.756869-11.352559 24.191982-6.481621l19.398816 11.199063c8.435113 4.869914 11.352559 15.756869 6.482645 24.193005L358.419136 323.55023300000005zM713.99655 318.83279100000004l-19.398816 11.200086c-8.436136 4.870938-19.322068 1.953492-24.193005-6.481621l-78.186733-135.422296c-4.869914-8.436136-1.953492-19.322068 6.482645-24.193005l19.398816-11.199063c8.435113-4.870938 19.322068-1.953492 24.191982 6.481621l78.186733 135.422296C725.350133 303.075923 722.432687 313.96287700000005 713.99655 318.83279100000004z"  horiz-adv-x="1024" />

    
    <glyph glyph-name="mode" unicode="&#59351;" d="M576.909847 249.508913L309.749158 249.508913 309.749158 455.920006 450.338127 455.920006 257.321088 648.924765 64.303027 455.920006 204.893019 455.920006 204.893019 144.65175 297.291428 144.65175 309.749158 144.65175 656.801409 144.65175ZM447.087083 518.49211L714.248795 518.49211 714.248795 312.081017 573.659827 312.081017 766.677888 119.07421199999999 959.69595 312.081017 819.105958 312.081017 819.105958 623.34825 726.705502 623.34825 714.248795 623.34825 367.196545 623.34825Z"  horiz-adv-x="1024" />

    
    <glyph glyph-name="mode-o" unicode="&#58952;" d="M814.853609 651.674389L203.52537 651.674389l147.274228 147.274228-27.824719 27.824719L128.200824 631.99928l194.774055-194.774055 27.824719 27.824719-147.274228 147.274228 611.328239 0c48.314379 0 78.700433-30.142507 78.700433-78.700433l0-301.686017c0-29.93273 39.350217-26.220175 39.350217 0L932.904259 533.6227160000001C932.904259 612.399897 893.13858 651.674389 814.853609 651.674389zM185.248098 630.600421l-1.397836 1.397836 1.397836 1.397836L185.248098 630.600421zM685.35114 305.50115800000003l142.618185-152.264892L224.598314 153.236266c-48.052412 0-78.914304 34.977629-78.914304 83.600023L145.68401 538.923442c0 29.972639-39.136346 26.25599-39.136346 0l0-302.087153c0-79.012541 39.558971-124.046201 117.417223-123.351376-0.00614 5.143137 604.00546 0.401136 604.00546 0.401136l-142.618185-142.728702 27.67327-27.861558 193.718003 195.032952L713.025433 333.362716 685.35114 305.50115800000003zM850.003154 139.73067100000003l1.390673-1.400906-1.390673-1.399883L850.003154 139.73067100000003z"  horiz-adv-x="1024" />

    
    <glyph glyph-name="angle-up" unicode="&#58966;" d="M820.09396 236.16397700000005c-5.175883 0-10.353812 1.950422-14.338566 5.862521L527.134699 515.630946 248.514004 242.02752099999998c-8.064676-7.919367-21.021779-7.80271-28.942169 0.264013-7.919367 8.064676-7.801686 21.021779 0.26299 28.942169l292.960285 287.684118c7.960299 7.818059 20.717857 7.818059 28.678156 0l292.960285-287.684118c8.065699-7.919367 8.182356-20.877493 0.264013-28.942169C830.690296 238.21058900000003 825.393663 236.16397700000005 820.09396 236.16397700000005z"  horiz-adv-x="1024" />

    
    <glyph glyph-name="angle-left" unicode="&#58967;" d="M670.977781 87.045751c-5.300726 0-10.596336 2.045589-14.603603 6.126534L368.69006 386.13257c-7.818059 7.961322-7.818059 20.717857 0 28.67918l287.684118 292.960285c7.92039 8.065699 20.877493 8.182356 28.942169 0.26299 8.065699-7.919367 8.182356-20.877493 0.264013-28.942169L411.976936 400.473183l273.603425-278.620695c7.918343-8.064676 7.801686-21.022803-0.264013-28.942169C681.331593 88.99719600000003 676.153664 87.045751 670.977781 87.045751z"  horiz-adv-x="1024" />

    
    <glyph glyph-name="angle-right" unicode="&#58968;" d="M383.291616 87.045751c-5.175883 0-10.353812 1.950422-14.338566 5.862521-8.064676 7.919367-8.182356 20.877493-0.26299 28.942169l273.602402 278.620695L368.69006 679.092855c-7.919367 8.064676-7.801686 21.022803 0.26299 28.942169 8.065699 7.918343 21.022803 7.80271 28.942169-0.26299l287.685141-292.960285c7.818059-7.961322 7.818059-20.717857 0-28.67918L397.895219 93.17330800000002C393.887952 89.09236299999998 388.591319 87.045751 383.291616 87.045751z"  horiz-adv-x="1024" />

    
    <glyph glyph-name="angle-down" unicode="&#58969;" d="M527.134699 230.02414c-5.179976 0-10.358929 1.954515-14.33959 5.862521L219.834824 523.5728260000001c-8.064676 7.919367-8.182356 20.877493-0.26299 28.942169 7.92039 8.064676 20.878516 8.181333 28.942169 0.26299l278.619672-273.603425 278.620695 273.603425c8.063653 7.918343 21.022803 7.801686 28.942169-0.26299 7.918343-8.064676 7.801686-21.022803-0.264013-28.942169L541.474288 235.88768400000004C537.493627 231.978654 532.313651 230.02414 527.134699 230.02414z"  horiz-adv-x="1024" />

    
    <glyph glyph-name="upload" unicode="&#58972;" d="M186.636724 465.731466c4.909823 0 9.82374 1.855254 13.596669 5.573949l306.881342 302.44838 0-648.318712c0-10.698666 8.67252-19.371186 19.371186-19.371186s19.371186 8.67252 19.371186 19.371186l0 647.568628 302.538431-298.121841c3.773953-3.718695 8.683776-5.572926 13.594623-5.572926 5.004991 0 10.007935 1.927909 13.798261 5.774517 7.509021 7.620561 7.41897 19.884886-0.201591 27.393907L540.528754 832.645067c-3.354398 3.306302-7.608282 5.134951-11.961426 5.501294-0.684592 0.073678-1.378393 0.115634-2.081405 0.115634-0.328481 0-0.648776-0.032746-0.974188-0.049119-4.989641 0.061398-10.001795-1.788739-13.837146-5.568832L173.039032 498.898867c-7.619538-7.509021-7.708566-19.774369-0.199545-27.393907C176.629813 467.658352 181.631734 465.731466 186.636724 465.731466zM876.833219 190.086545c-10.698666 0-19.371186-8.67252-19.371186-19.371186l0-165.41847c0-13.05534-10.620895-23.676236-23.676236-23.676236l-618.946754 0c-13.05534 0-23.676236 10.620895-23.676236 23.676236L191.162808 170.71535900000003c0 10.698666-8.67252 19.371186-19.371186 19.371186s-19.371186-8.67252-19.371186-19.371186l0-165.41847c0-34.417881 28.000728-62.417585 62.417585-62.417585l618.946754 0c34.417881 0 62.417585 27.999704 62.417585 62.417585L896.202359 170.71535900000003C896.204405 181.41402500000004 887.531885 190.086545 876.833219 190.086545z"  horiz-adv-x="1024" />

    
    <glyph glyph-name="download" unicode="&#58973;" d="M502.010485 130.060427c3.773953-3.719718 8.686846-5.573949 13.596669-5.573949 0.075725 0 0.151449 0.010233 0.227174 0.011256 0.329505-0.016373 0.654916-0.050142 0.988514-0.050142 0.706081 0 1.400906 0.042979 2.087545 0.116657 4.352121 0.366344 8.607028 2.190899 11.961426 5.496178l335.053985 330.166675c7.619538 7.509021 7.709589 19.773346 0.200568 27.393907s-19.774369 7.711636-27.39493 0.201591L536.193005 189.69564200000002 536.193005 845.980793c0 10.698666-8.67252 19.371186-19.371186 19.371186s-19.371186-8.67252-19.371186-19.371186l0-657.032164-306.881342 302.44838c-7.618515 7.509021-19.883863 7.419993-27.393907-0.199545-7.509021-7.619538-7.419993-19.884886 0.199545-27.393907L502.010485 130.060427zM867.170139 184.97922400000004c-10.698666 0-19.371186-8.67252-19.371186-19.371186l0-165.419494c0-13.054317-10.620895-23.675212-23.676236-23.675212L205.182103-23.48666800000001c-13.054317 0-23.676236 10.620895-23.676236 23.675212L181.505867 165.60803799999996c0 10.698666-8.67252 19.371186-19.371186 19.371186s-19.371186-8.67252-19.371186-19.371186l0-165.419494c0-34.416857 28.000728-62.416562 62.417585-62.416562l618.941638 0c34.417881 0 62.417585 27.999704 62.417585 62.416562L886.540302 165.60803799999996C886.541325 176.30670399999997 877.868805 184.97922400000004 867.170139 184.97922400000004z"  horiz-adv-x="1024" />

    
    <glyph glyph-name="qrcode" unicode="&#59015;" d="M438.202 819.056h-317.192c-21.869 0-39.661-17.789-39.661-39.656v-317.196c0-21.866 17.791-39.656 39.661-39.656h317.192c21.866 0 39.656 17.79 39.656 39.656v317.196c-0.001 21.867-17.79 39.656-39.656 39.656zM443.322 462.204c0-2.824-2.297-5.12-5.12-5.12h-317.191c-2.826 0-5.123 2.298-5.123 5.12v317.196c0 2.824 2.299 5.12 5.123 5.12h317.192c2.824 0 5.12-2.297 5.12-5.12v-317.196zM334.733 700.981h-110.258c-13.813 0-25.05-11.237-25.05-25.05v-110.258c0-13.815 11.237-25.055 25.05-25.055h110.258c13.815 0 25.055 11.24 25.055 25.055v110.258c0.001 13.813-11.239 25.05-25.055 25.05zM325.251 575.155h-91.289v91.289h91.289v-91.289zM334.733 230.61900000000003h-110.258c-13.813 0-25.05-11.24-25.05-25.055v-110.258c0-13.812 11.237-25.05 25.05-25.05h110.258c13.815 0 25.055 11.238 25.055 25.05v110.258c0.001 13.815-11.239 25.055-25.055 25.055zM325.251 104.79399999999998h-91.289v91.289h91.289v-91.289zM687.429 540.619h110.258c13.815 0 25.055 11.24 25.055 25.055v110.258c0 13.813-11.24 25.05-25.055 25.05h-110.258c-13.812 0-25.05-11.237-25.05-25.05v-110.258c0-13.815 11.238-25.055 25.05-25.055zM696.915 666.444h91.289v-91.289h-91.289v91.289zM438.202 351.717h-317.192c-21.869 0-39.661-17.79-39.661-39.656v-317.196c0-21.867 17.791-39.657 39.661-39.657h317.192c21.866 0 39.656 17.79 39.656 39.657v317.196c-0.001 21.866-17.79 39.656-39.656 39.656zM443.322-5.135999999999967c0-2.824-2.297-5.121-5.12-5.121h-317.191c-2.826 0-5.123 2.298-5.123 5.121v317.196c0 2.823 2.299 5.12 5.123 5.12h317.192c2.824 0 5.12-2.298 5.12-5.12v-317.196zM585.922 350.45899999999995c-21.867 0-39.657-17.792-39.657-39.662v-182.483c0-9.537 7.732-17.269 17.269-17.269s17.269 7.732 17.269 17.269v182.483c0 2.826 2.298 5.125 5.121 5.125h192.024c9.537 0 17.269 7.732 17.269 17.269s-7.732 17.269-17.269 17.269h-192.024zM583.96 422.547h317.196c21.867 0 39.657 17.79 39.657 39.656v317.196c0 21.866-17.79 39.656-39.657 39.656h-317.196c-21.866 0-39.656-17.789-39.656-39.656v-317.196c0-21.866 17.79-39.656 39.656-39.656zM578.84 779.4c0 2.824 2.298 5.12 5.12 5.12h317.196c2.824 0 5.121-2.297 5.121-5.12v-317.196c0-2.824-2.298-5.12-5.121-5.12h-317.196c-2.823 0-5.12 2.298-5.12 5.12v317.196zM941.072 333.19100000000003c0 9.537-7.732 17.269-17.269 17.269h-63.285c-9.537 0-17.269-7.732-17.269-17.269s7.732-17.269 17.269-17.269h46.017v-66.571h-143.559c-9.537 0-17.269-7.732-17.269-17.269s7.732-17.269 17.269-17.269h160.827c9.537 0 17.269 7.732 17.269 17.269 0 0.072-0.009 0.142-0.01 0.214 0.001 0.072 0.01 0.141 0.01 0.214v100.68zM622.814-10.822000000000003h-42.013v48.086c0 9.537-7.732 17.269-17.269 17.269s-17.269-7.732-17.269-17.269v-65.355c0-9.537 7.732-17.269 17.269-17.269h59.281c9.537 0 17.269 7.732 17.269 17.269s-7.732 17.269-17.269 17.269zM813.922 123.03700000000003c0 9.537-7.732 17.269-17.269 17.269h-109.099c-9.537 0-17.269-7.732-17.269-17.269v-152.826c0-9.537 7.732-17.269 17.269-17.269s17.269 7.732 17.269 17.269v135.557h91.831c9.537 0 17.269 7.732 17.269 17.269zM923.62 185.789c-9.537 0-17.269-7.732-17.269-17.269v-182.157h-156.279c-9.537 0-17.269-7.732-17.269-17.269s7.732-17.269 17.269-17.269h173.547c9.537 0 17.269 7.732 17.269 17.269v199.426c0 9.537-7.731 17.269-17.269 17.269zM646.98 279.356c-9.537 0-17.269-7.732-17.269-17.269v-56.128c0-9.537 7.732-17.269 17.269-17.269s17.269 7.732 17.269 17.269v56.128c0 9.537-7.732 17.269-17.269 17.269z"  horiz-adv-x="1024" />

    
    <glyph glyph-name="battery-full" unicode="&#59110;" d="M832.141344 554.592306c14.395872 0 27.166733-5.891174 38.295188-17.672498 11.128455-11.782348 16.692171-24.879644 16.692171-39.284725l0-245.50139c0-13.08911-5.563716-25.239847-16.692171-36.334533-11.128455-11.128455-23.899316-16.692171-38.295188-16.692171L119.209032 199.106989c-13.097296 0-25.206078 5.563716-36.334533 16.692171-11.128455 11.094686-16.700357 23.245424-16.700357 36.334533l0 245.50139c0 14.405081 5.572926 27.502377 16.700357 39.284725 11.128455 11.782348 23.237237 17.672498 36.334533 17.672498L832.141344 554.592306zM898.91105 442.647725c22.265096 0 36.996612-5.891174 44.194548-17.681708 7.197936-11.782348 10.800997-28.189016 10.800997-49.097208 0-20.949124-3.603061-37.642319-10.800997-50.085722-7.197936-12.477172-21.929452-18.652825-44.194548-18.652825L898.91105 442.647725z"  horiz-adv-x="1024" />

    
    <glyph glyph-name="battery-o" unicode="&#59111;" d="M835.455833 573.79874c14.409175 0 27.192316-5.89629 38.32998-17.688871 11.138688-11.792581 16.70752-24.902156 16.70752-39.319517l0-245.724471c0-13.101389-5.568832-25.26236-16.70752-36.367279-11.138688-11.138688-23.920806-16.70752-38.32998-16.70752L121.876792 217.991082c-13.109576 0-25.229614 5.568832-36.367279 16.70752-11.138688 11.104919-16.715707 23.266913-16.715707 36.367279L68.793806 516.790352c0 14.417361 5.578042 27.526937 16.715707 39.319517 11.138688 11.792581 23.257703 17.688871 36.367279 17.688871L835.455833 573.79874zM121.876792 532.516522c-6.559393 0-10.483772-0.695848-11.800767-1.962701-1.308809-1.308809-1.962701-5.89629-1.962701-13.763468l0-245.724471c0-6.592139 0.653893-12.488429 1.962701-17.688871 1.316995-5.242398 5.242398-7.858992 11.800767-7.858992l713.579041 0c6.550183 0 10.157337 2.616594 10.81123 7.858992 0.653893 5.200442 0.981351 11.096732 0.981351 17.688871L847.248414 516.790352c0 7.867178-0.327458 12.455683-0.981351 13.763468-0.653893 1.266853-4.261047 1.962701-10.81123 1.962701L121.876792 532.516522zM902.285914 461.752852c22.285562 0 37.030381-5.89629 44.234457-17.697057 7.205099-11.792581 10.81123-28.214599 10.81123-49.14121 0-20.968567-3.606131-37.676088-10.81123-50.130747-7.205099-12.488429-21.949918-18.670222-44.234457-18.670222L902.285914 461.752852z"  horiz-adv-x="1024" />

    
    <glyph glyph-name="battery" unicode="&#59112;" d="M835.842643 588.447369c14.518668 0 27.396977-5.941316 38.619576-17.822924 11.222599-11.881608 16.833387-25.090445 16.833387-39.616276l0-247.578702c0-13.199627-5.610788-25.453718-16.833387-36.641525-11.222599-11.222599-24.100908-16.833387-38.619576-16.833387l-718.964702 0c-13.208836 0-25.419949 5.610788-36.641525 16.833387-11.222599 11.18883-16.842597 23.441898-16.842597 36.641525l0 247.578702c0 14.526855 5.619998 27.734668 16.842597 39.616276 11.222599 11.881608 23.433712 17.822924 36.641525 17.822924L835.842643 588.447369zM116.877941 546.853042c-6.608511 0-10.56359-0.700965-11.889795-1.977028-1.318018-1.318018-1.977028-5.941316-1.977028-13.867846l0-247.578702c0-6.642281 0.659009-12.582573 1.977028-17.822924 1.327228-5.281283 5.281283-7.918343 11.889795-7.918343l718.964702 0c6.600325 0 10.234085 2.63706 10.893094 7.918343 0.659009 5.239328 0.988514 11.180644 0.988514 17.822924l0 247.578702c0 7.92653-0.329505 12.548804-0.988514 13.867846-0.659009 1.276063-4.29277 1.977028-10.893094 1.977028L116.877941 546.853042zM570.432831 511.208217l0-205.984375-425.828408 0L144.604422 511.208217 570.432831 511.208217zM903.177214 475.555206c22.453385 0 37.309744-5.941316 44.569078-17.831111 7.259334-11.881608 10.893094-28.428469 10.893094-49.51267 0-21.126156-3.63376-37.960567-10.893094-50.509371-7.259334-12.582573-22.115694-18.811438-44.569078-18.811438L903.177214 475.555206z"  horiz-adv-x="1024" />

    
    <glyph glyph-name="upgrade" unicode="&#58927;" d="M276.8 446.72C193.6 440.96 128 372.48 128 288c0-88.3264 71.6736-160 160-160l416 0c105.92 0 192 86.0736 192 192 0 98.88-74.88 180.48-171.2 190.72C684.8 587.52 604.48 640 512 640 395.5136 640 298.5472 557.12 276.8 446.72L276.8 446.72zM288 192c-53.1264 0-96 42.8736-96 96s42.8736 96 96 96l48 0 0 16C336 497.28 414.7136 576 512 576c80.6336 0 148.16-54.0864 169.28-128L704 448c70.72 0 128-57.28 128-128 0-70.7264-57.28-128-128-128L288 192 288 192zM288 192M460.8 294.4l102.4 0 0-102.4-102.4 0 0 102.4ZM416 291.1232L512 393.5232 608 291.1232Z"  horiz-adv-x="1024" />

    
    <glyph glyph-name="wifi-off" unicode="&#58930;" d="M631.391181 399.562441c-34.55091 24.260543-75.195609 37.084617-117.542066 37.084617-87.38421 0-165.198459-55.484685-193.629999-138.065496-5.519714-16.031115 3.00238-33.500998 19.033495-39.020712 3.310396-1.13894 6.680143-1.680269 9.995655-1.680269 12.739139 0 24.645306 7.993045 29.025057 20.712741 19.904329 57.812707 74.388221 96.655364 135.576815 96.655364 29.653367 0 58.097186-8.967232 82.259492-25.933649 23.658839-16.612353 41.566698-39.606043 51.786457-66.49239 6.02318-15.847943 23.754007-23.812335 39.602973-17.789155 15.847943 6.025227 23.813359 23.756053 17.788132 39.603996C690.687682 343.04216899999994 665.134703 375.867786 631.391181 399.562441zM704.323237 559.379333c-57.594743 33.567513-123.459846 51.309596-190.475146 51.309596-67.671239 0-134.096091-18.070564-192.092993-52.257178-56.268538-33.168424-103.295598-80.580247-135.997394-137.111774-8.489348-14.676257-3.475148-33.455973 11.20111-41.945321 4.840238-2.799766 10.126638-4.131087 15.343453-4.131087 10.599406 0 20.912285 5.497201 26.601868 15.332197 27.418466 47.39852 66.849524 87.151919 114.029056 114.962312 48.557926 28.622898 104.201224 43.75248 160.9149 43.75248 56.164161 0 111.338784-14.854313 159.560042-42.957371 46.835701-27.29567 86.185918-66.385966 113.796766-113.044636 8.634658-14.591323 27.464515-19.420305 42.054815-10.785647 14.591323 8.634658 19.420305 27.462468 10.785647 42.053792C807.114344 480.204086 760.182452 526.824893 704.323237 559.379333zM972.243219 539.99382C869.144096 692.599474 697.782264 783.707494 513.848091 783.707494c-93.261057 0-185.464015-23.667026-266.64085-68.443835-78.629825-43.370787-146.290831-106.010429-195.668425-181.145663-9.312086-14.168698-5.373381-33.203216 8.795317-42.515303 5.197372-3.414773 11.045567-5.047969 16.83134-5.047969 9.989515 0 19.786649 4.870938 25.683962 13.842263 91.316775 138.953725 244.962108 221.911112 410.999678 221.911112 163.508981 0 315.852668-81.004919 407.518391-216.687134 9.491165-14.048971 28.574802-17.744129 42.62275-8.251941C978.040249 506.861212 981.734384 525.944849 972.243219 539.99382zM626.420983 217.05373399999996c-11.988032 11.990079-31.426757 11.990079-43.414789 0l-68.470441-68.470441-68.469418 68.470441c-11.989055 11.989055-31.425733 11.989055-43.415812 0-11.989055-11.989055-11.989055-31.425733 0-43.414789l68.470441-68.470441-68.470441-68.470441c-11.989055-11.989055-11.989055-31.425733 0-43.414789 5.994528-5.994528 13.851473-8.991792 21.707394-8.991792s15.712867 2.997264 21.707394 8.991792l68.469418 68.470441 68.470441-68.470441c5.994528-5.994528 13.849426-8.991792 21.707394-8.991792 7.855922 0 15.71389 2.998287 21.707394 8.991792 11.989055 11.989055 11.989055 31.425733 0 43.414789l-68.470441 68.470441 68.470441 68.470441C638.410038 185.62800000000004 638.410038 205.065701 626.420983 217.05373399999996z"  horiz-adv-x="1024" />

    
    <glyph glyph-name="classroom" unicode="&#58888;" d="M397.76 316.496c11.552-35.008 43.632-34.976 55.152 0 3.776 1.968 7.68 7.904 8.304 12.784 0.672 5.088 0.288 11.936-4.864 11.936-1.136 16.4-10.128 30.32-30.592 30.32-20 0-30.192-12.064-31.44-30.32-5.168 0-5.552-6.848-4.88-11.936 0.656-4.88 4.544-10.816 8.32-12.784zM471.888 115.67999999999995v12.208c13.392 0 24.256 10.864 24.256 24.256v0.832l94.336 94.336a6.496 6.496 0 0 1 0 9.216 6.464 6.464 0 0 1-9.2 0l-85.12-85.088v80.336c0 17.488-12.752 32.592-30.592 36.336l-13.024 2.688-27.168-54.096-27.168 54.096-13.024-2.688c-17.84-3.712-30.576-18.864-30.576-36.336v-99.664c0-13.392 10.848-24.256 24.24-24.256v-12.224h93.056v0.048zM277.68 199.60000000000002a67.52 67.52 0 0 1 67.424-67.456h0.784a38.16 38.16 0 0 0-5.68 20v9.232a38.672 38.672 0 0 0-33.792 38.256v183.36a38.752 38.752 0 0 0 38.688 38.704h321.968a38.752 38.752 0 0 0 38.72-38.704v-183.392a38.768 38.768 0 0 0-38.72-38.72H524.32l-14.352-14.352a39.264 39.264 0 0 0-5.584-14.352h162.688a67.568 67.568 0 0 1 67.456 67.472v183.36a67.536 67.536 0 0 1-67.456 67.456H345.136a67.52 67.52 0 0 1-67.44-67.456l-0.016-183.408zM372.144 92.01599999999996h-50.32a44.128 44.128 0 0 1-44.144-44.128v-58.304h138.592v58.304a44.096 44.096 0 0 1-44.128 44.128zM532.048 92.01599999999996h-50.32a44.112 44.112 0 0 1-44.144-44.128v-58.304h138.608v58.304a44.128 44.128 0 0 1-44.144 44.128zM691.968 92.01599999999996h-50.32a44.128 44.128 0 0 1-44.16-44.128v-58.304h138.56v58.304a44.032 44.032 0 0 1-44.08 44.128zM987.776 455.12a22.304 22.304 0 0 1-1.856 2l-90.864 86.656 0.032 0.528L532.688 889.376a23.088 23.088 0 0 1-32.144 0.208L36.464 457.312a21.44 21.44 0 0 1-2.096-2.224C22.528 441.104 16 422.56 16 403.008c0-41.328 29.312-74.912 65.36-74.912H103.68v-428.784c0-14.656 10.992-26.496 24.48-26.496h771.648c13.536 0 24.496 11.84 24.496 26.496V328.096H940.8c36.032 0 65.376 33.6 65.376 74.912 0.016 19.584-6.512 38.096-18.4 52.112z m-80.272-75.952h-30.08c-1.856 0 18.336 1.712 16.512 1.248-1.744 0.464-20.544-1.776-22.432-1.776-13.536 0-27.504 0.64-27.504-14l2-426.816h-656l-1.328 416.816c0 14.656-10.992 26.544-24.48 26.544H117.36c-8.896 0-16.384 10-16.384 21.84 0 5.84 1.68 11.216 4.784 15.344L514 802.64 919.024 416.48c3.12-4.16 4.88-9.6 4.88-15.44-0.032-11.872-7.536-21.872-16.4-21.872z"  horiz-adv-x="1024" />

    
    <glyph glyph-name="board" unicode="&#59074;" d="M706.132992 675.712c20.620288 0 37.332992-16.714752 37.332992-37.332992s-16.713728-37.332992-37.332992-37.332992c-20.61824 0-37.33504 16.714752-37.33504 37.332992s16.7168 37.332992 37.33504 37.332992zM317.868032 750.379008c12.368896 0 22.398976-10.029056 22.398976-22.4 0-12.371968-10.029056-22.4-22.398976-22.4-12.371968 0-22.401024 10.028032-22.401024 22.4 0 12.36992 10.029056 22.4 22.401024 22.4zM519.467008 631.061504c82.473984 0 149.331968-66.857984 149.331968-149.332992s-66.857984-149.332992-149.331968-149.332992-149.332992 66.857984-149.332992 149.332992 66.859008 149.332992 149.332992 149.332992zM452.267008 750.379008h134.4c12.370944 0 22.4-10.029056 22.4-22.4 0-12.371968-10.029056-22.4-22.4-22.4h-134.4c-12.371968 0-22.4 10.028032-22.4 22.4 0 12.36992 10.027008 22.4 22.4 22.4zM825.344 787.2C825.344 811.9418880000001 805.540864 831.488 780.795904 831.488H243.204096C218.459136 831.488 198.656 811.9418880000001 198.656 787.2v-806.4c0-24.741888 19.803136-45.312 44.548096-45.312h537.592832C805.540864-64.51199999999994 825.344-43.94188799999995 825.344-19.200000000000045v806.4zM780.288-19.456000000000017H242.688V787.456h537.6v-806.912zM377.6 227.20000000000005c-20.61824 0-37.332992-16.714752-37.332992-37.332992 0-20.620288 16.714752-37.332992 37.332992-37.332992s37.332992 16.713728 37.332992 37.332992c0 20.61824-16.714752 37.332992-37.332992 37.332992z m0-59.732992c-12.370944 0-22.4 10.028032-22.4 22.4 0 12.370944 10.029056 22.4 22.4 22.4s22.4-10.029056 22.4-22.4c0-12.372992-10.029056-22.4-22.4-22.4zM512 227.20000000000005c-20.61824 0-37.332992-16.714752-37.332992-37.332992 0-20.620288 16.714752-37.332992 37.332992-37.332992 20.61824 0 37.332992 16.713728 37.332992 37.332992 0 20.61824-16.714752 37.332992-37.332992 37.332992z m0-59.732992c-12.370944 0-22.4 10.028032-22.4 22.4 0 12.370944 10.029056 22.4 22.4 22.4s22.4-10.029056 22.4-22.4c0-12.372992-10.029056-22.4-22.4-22.4zM640.157696 227.20000000000005c-20.61824 0-37.332992-16.714752-37.332992-37.332992 0-20.620288 16.714752-37.332992 37.332992-37.332992s37.332992 16.713728 37.332992 37.332992c0.001024 20.61824-16.714752 37.332992-37.332992 37.332992z m0-59.732992c-12.370944 0-22.4 10.028032-22.4 22.4 0 12.370944 10.029056 22.4 22.4 22.4s22.4-10.029056 22.4-22.4c0-12.372992-10.028032-22.4-22.4-22.4zM377.6 107.73299199999997c-20.61824 0-37.332992-16.714752-37.332992-37.332992 0-20.620288 16.714752-37.332992 37.332992-37.332992s37.332992 16.713728 37.332992 37.332992-16.714752 37.332992-37.332992 37.332992z m0-59.732992c-12.370944 0-22.4 10.028032-22.4 22.4 0 12.370944 10.029056 22.4 22.4 22.4s22.4-10.029056 22.4-22.4c0-12.371968-10.029056-22.4-22.4-22.4zM512 107.73299199999997c-20.61824 0-37.332992-16.714752-37.332992-37.332992 0-20.620288 16.714752-37.332992 37.332992-37.332992 20.61824 0 37.332992 16.713728 37.332992 37.332992S532.61824 107.73299199999997 512 107.73299199999997z m0-59.732992c-12.370944 0-22.4 10.028032-22.4 22.4 0 12.370944 10.029056 22.4 22.4 22.4s22.4-10.029056 22.4-22.4c0-12.371968-10.029056-22.4-22.4-22.4zM640.157696 107.73299199999997c-20.61824 0-37.332992-16.714752-37.332992-37.332992 0-20.620288 16.714752-37.332992 37.332992-37.332992s37.332992 16.713728 37.332992 37.332992c0.001024 20.619264-16.714752 37.332992-37.332992 37.332992z m0-59.732992c-12.370944 0-22.4 10.028032-22.4 22.4 0 12.370944 10.029056 22.4 22.4 22.4s22.4-10.029056 22.4-22.4c0-12.371968-10.028032-22.4-22.4-22.4z"  horiz-adv-x="1024" />

    
    <glyph glyph-name="steering-wheel" unicode="&#58886;" d="M513.484 876.037c-265.355 0-481.397-220.739-481.397-493.14 0-272.4 216.042-493.141 481.397-493.141 265.357 0 481.399 220.74 481.399 493.141 0.001 272.401-216.041 493.14-481.399 493.14z m116.243-871.215c-2.35-1.176-4.696-1.176-7.045-1.176-10.568 0-21.135 8.222-23.483 18.786l-11.74 59.883c-1.573 7.085-6.323 13.096-12.815 16.302l18.686 152.775c34.049 22.308 57.532 56.358 66.927 95.104l133.666 54.131c4.263-5.204 10.763-8.338 17.795-8.338h1.175l62.229 3.521h1.174c12.915 0 24.659-11.741 23.484-24.654-10.568-177.296-120.938-318.194-270.053-366.334z m15.264 360.461c-3.524-1.174-5.87-4.697-7.046-8.219-7.045-36.399-29.354-69.272-61.056-88.059-3.521-1.176-5.87-4.697-5.87-8.222l-19.96-159.682h-75.285l-19.822 159.682c-1.174 3.524-2.349 5.87-5.872 8.222-32.876 18.786-55.185 51.659-62.229 89.234-1.175 3.521-3.522 7.043-7.045 8.219l-137.439 56.074 20.291 74.108 153.545-20.989c3.523 0 7.044 1.175 9.392 3.524 23.483 22.309 54.011 35.224 86.887 35.224 32.878 0 64.578-12.915 88.062-36.399 2.35-2.349 4.695-3.522 8.22-3.522 0 0 1.174 0 1.174 1.173l154.718 20.999 20.341-74.292-141.006-57.075z m-427.39 27.007c7.098 0 13.654 3.188 17.915 8.479l130.027-53.096c9.394-38.748 32.876-72.799 66.926-95.107l19.598-153.519c-6.959-3.074-12.081-9.319-13.727-16.731l-11.742-59.883c-2.349-11.74-11.742-18.786-23.483-18.786-2.349 0-4.696 0-7.045 1.176-149.116 48.14-259.485 187.862-268.879 367.507-1.174 14.091 10.567 24.656 23.483 24.656h1.174l64.578-4.696h1.175z m556.545 143.245c-6.812-3.027-11.167-8.987-12.471-15.667l-148.388-20.732c-28.179 24.657-63.403 38.748-99.803 38.748-37.571 0-71.622-14.091-99.801-38.748l-146.865 20.826c-1.539 6.644-5.617 12.561-11.645 15.573l-57.533 28.179c-12.916 5.871-16.438 22.309-9.393 34.051 69.275 109.195 189.037 181.992 325.237 181.992 136.201 0 257.137-72.797 325.238-181.992 7.046-11.742 2.351-27.006-9.393-34.051l-55.183-28.179zM513.484 803.239c-7.865 0-15.693-0.258-23.482-0.711V851.943a452.694 452.694 0 0 0 46.967 0v-49.417c-7.789 0.452-15.616 0.713-23.485 0.713z m0-890c-252.439 0-457.915 210.171-457.915 469.657 0 247.304 186.636 449.815 422.691 468.283V801.67c-125.979-10.953-240.114-80.291-309.974-190.992-7.045-11.741-9.394-24.656-5.871-37.572 3.522-12.916 12.916-23.483 24.658-29.353l57.533-28.18-26.273-95.957a9.63 9.63 0 0 1-0.842-2.665l-64.468 4.687h-3.522c-11.95 0-23.891-5.031-32.12-13.222 0.583 10.278 1.481 20.557 2.766 30.835 1.174 3.522-1.175 7.046-4.697 7.046-3.522 1.173-7.044-1.175-7.044-4.699-2.107-16.861-3.218-34.626-3.433-51.685-2.156-5.968-3.021-12.367-2.437-18.764 11.741-183.166 124.458-335.805 287.664-388.64 4.697-1.176 9.393-2.349 14.09-2.349 22.309 0 42.269 16.438 45.791 37.572l11.643 59.372c1.139-0.409 2.346-0.664 3.622-0.664 0 0 1.173 0 1.173 1.173h97.456l11.739-59.881c2.896-13.759 11.168-24.824 22.303-31.295a387.321 387.321 0 0 0-37.563-6.277c-2.349-1.173-4.698-3.523-4.698-7.046 0-2.349 3.523-4.694 5.87-4.694 20.034 2.287 39.79 6.264 59.265 11.768 0.206-0.002 0.41-0.027 0.617-0.027 4.695 0 9.394 1.173 14.09 2.349 164.38 52.835 277.099 204.301 287.665 387.467 1.174 12.916-3.522 25.831-12.915 35.224-9.395 9.393-21.135 15.264-34.05 15.264h-3.524l-62.228-3.521-24.682 90.132c0.243 1.269 0.271 2.556 0.022 3.799a10.1 10.1 0 0 1-1.414 5.151l54.251 26.548c11.741 5.872 21.136 16.438 24.659 29.354 0.097 0.363 0.175 0.729 0.265 1.094 10.214-19.65 18.847-40.072 25.565-60.976 1.174-2.347 3.523-3.522 5.87-3.522h2.35c2.349 1.175 4.695 3.522 3.521 7.045-10.227 29.652-23.124 57.521-38.693 84.387-1.207 3.385-2.79 6.604-4.751 9.545C789.753 720.283 675.684 790.624 548.71 801.668V851.179C784.767 832.712 971.402 630.2 971.402 382.89599999999996c0-259.486-205.475-469.657-457.918-469.657zM559.278 381.721c0 24.659-21.134 45.793-45.794 45.793-24.656 0-45.791-21.134-45.791-45.793 0-24.656 19.96-45.791 45.791-45.791 25.831 0 45.794 21.134 45.794 45.791z m-45.794-37.573c-19.96 0-36.398 16.438-36.398 37.572 0 19.962 16.438 37.573 36.398 37.573 19.961 0 36.399-16.438 36.399-37.573 0.001-21.134-16.438-37.572-36.399-37.572zM481.784 326.53700000000003l-1.174 1.176c-8.219 5.87-18.786 2.347-23.483-5.872-5.871-9.393-2.348-19.96 5.871-24.657l1.173-1.175c3.523-1.174 5.872-2.347 9.395-2.347 5.87 0 11.742 3.521 14.089 8.219 5.869 9.392 2.347 19.96-5.871 24.656zM472.391 435.733c3.522 0 7.044 1.174 9.392 2.348l1.176 1.172c8.218 5.873 10.566 16.439 5.87 24.66-5.87 8.219-16.438 10.567-24.658 5.87l-1.173-1.175c-8.22-5.87-10.567-16.438-5.871-24.655 3.522-4.7 9.392-8.22 15.264-8.22zM545.189 438.081c3.521-1.173 5.87-2.348 9.391-2.348 5.873 0 11.743 3.52 14.089 8.219 4.7 9.393 2.351 19.96-5.87 24.655l-1.174 1.175c-8.221 4.697-18.785 1.175-23.48-7.044-4.7-8.22-1.175-19.961 7.044-24.657zM594.502 402.856c-9.394 0-17.612-8.219-17.612-17.611v-2.349c0-10.567 8.219-17.613 17.612-17.613 9.392 0 17.611 8.221 17.611 18.786v1.176c0 9.392-8.219 17.611-17.611 17.611zM432.469 401.683c-9.393 0-17.612-8.219-17.612-17.613v-2.349c0-9.392 8.219-17.611 17.612-17.611 10.567 0 17.612 8.22 17.612 18.787v1.173c0 9.394-8.219 17.613-17.612 17.613zM545.189 327.71299999999997l-1.176-1.176c-8.22-4.696-10.568-15.264-5.869-23.483 3.521-4.694 9.391-8.219 15.26-8.219 3.524 0 7.049 0 10.57 2.349 8.219 5.87 10.568 16.438 5.87 24.657-5.869 8.219-16.44 10.567-24.655 5.872zM124.844 488.569h1.175c2.347 0 4.696 2.348 5.87 3.522l1.174 3.522c1.174 2.348 0 5.872-3.522 7.044-2.349 1.175-5.871 0-7.045-3.522l-1.174-3.522c-1.175-2.347-0.001-5.871 3.522-7.044zM117.799 454.518c3.522 0 5.871 2.349 5.871 5.872 0 3.523 1.174 8.218 2.348 12.915 0 3.522-1.174 5.872-4.696 7.047-3.522 0-5.871-1.175-7.044-4.699 0-4.695-1.174-9.393-2.349-14.09-0.001-3.521 1.174-5.871 5.87-7.045zM473.565-19.835000000000036l-5.872 1.174c-3.523 1.175-7.044-1.174-7.044-4.695-1.174-3.523 1.174-7.046 4.697-7.046l7.045-1.175c3.522 0 5.87 1.175 5.87 5.87 1.174 2.351-1.175 5.872-4.696 5.872zM524.055-22.182999999999993h-28.182c-3.521 0-5.87-2.349-5.87-5.871 0-3.523 2.349-5.87 5.87-5.87h28.182c3.521 0 5.869 2.347 5.869 5.87s-2.349 5.871-5.869 5.871zM909.171 489.742c-1.174 3.524-3.521 5.872-7.044 4.698-3.521-1.174-5.871-3.524-4.695-7.044 1.174-4.699 2.349-10.569 3.521-15.265 1.175-2.349 3.524-4.697 5.873-4.697h1.172c3.523 1.173 5.873 3.522 4.698 7.045-1.175 4.697-2.349 10.568-3.525 15.263z"  horiz-adv-x="1024" />

    
    <glyph glyph-name="electric-sensor" unicode="&#58887;" d="M704.512 506.88H406.016V811.52a36.352 36.352 0 0 1-72.704 0V506.88H259.584a35.328 35.328 0 0 1-34.304-36.352v-512a35.328 35.328 0 0 1 34.304-36.352h444.928a102.4 102.4 0 0 1 102.4 107.52V399.36a102.4 102.4 0 0 1-102.4 107.52z m12.288-401.408a39.424 39.424 0 0 0-22.016-4.096 51.2 51.2 0 0 0-15.872 0c-39.936 10.24-46.08 57.856-51.2 108.032-6.144 41.984-11.776 88.064-37.888 86.016s-31.744-35.84-39.936-64-22.016-66.048-53.76-68.096a46.08 46.08 0 0 0-51.2 37.888c-6.144 19.968-10.24 22.016-24.064 22.016s-28.16-35.84-33.792-61.952-13.824-55.808-39.936-55.808a53.76 53.76 0 0 0-51.2 51.2h26.112s4.096-31.744 24.064-31.744a145.92 145.92 0 0 1 12.288 44.544c8.192 33.792 17.92 73.728 55.808 77.824a44.032 44.032 0 0 0 51.2-35.84c6.144-17.92 10.24-24.064 22.016-22.016s22.016 31.744 28.16 51.2c11.776 37.888 24.064 75.776 64 77.824 51.2 4.096 59.904-51.2 68.096-102.4 6.144-37.888 11.776-83.968 33.792-90.112a22.016 22.016 0 0 1 15.872 0 60.928 60.928 0 0 1 26.112 44.032l26.112-4.096a62.976 62.976 0 0 0-32.768-60.416z"  horiz-adv-x="1024" />

    
    <glyph glyph-name="temperature-humidity-sensor" unicode="&#58890;" d="M595.968 120.832V230.39999999999998a20.992 20.992 0 1 1-41.984 0v-108.544a44.032 44.032 0 0 1-18.432-33.28 39.424 39.424 0 1 1 78.336 0 35.84 35.84 0 0 1-17.92 32.256z m-20.992-64.512a30.72 30.72 0 0 0-30.72 30.72 31.232 31.232 0 0 0 16.384 27.648V215.03999999999996h25.088v-99.328a28.16 28.16 0 0 0 15.872-27.648 30.72 30.72 0 0 0-26.624-31.744zM704.512 506.88H406.016V811.52a36.352 36.352 0 0 1-72.704 0V506.88H259.584a35.328 35.328 0 0 1-34.304-36.352v-512a35.328 35.328 0 0 1 34.304-36.352h444.928a102.4 102.4 0 0 1 102.4 107.52V399.36a102.4 102.4 0 0 1-102.4 107.52zM614.4 187.904h16.384v-4.608H614.4v4.608z m0-13.312h16.384v-4.608H614.4v4.608z m0-13.312h16.384v-4.608H614.4v4.608z m0-13.312h16.384H614.4v4.608z m-123.392 214.016a9.216 9.216 0 0 0 15.36 0 186.368 186.368 0 0 0 25.6-58.88 33.792 33.792 0 0 0-67.072 0 186.368 186.368 0 0 0 26.112 58.88zM358.4 225.27999999999997a409.6 409.6 0 0 0 51.2 118.272 9.216 9.216 0 0 0 15.36 0 409.6 409.6 0 0 0 51.2-118.272 60.928 60.928 0 0 0-117.76 0z m92.16-170.496h-3.072a9.216 9.216 0 0 0-5.12 11.776l113.664 269.824a9.216 9.216 0 0 0 16.896-6.656L460.8 60.416000000000054a8.704 8.704 0 0 0-9.728-5.632z m123.904-15.872a51.2 51.2 0 0 0-30.208 87.04V230.39999999999998a30.208 30.208 0 1 0 60.416 0v-102.4a51.2 51.2 0 0 0 18.432-37.888 51.2 51.2 0 0 0-48.128-51.2zM640.512 128H614.4v4.608h26.112V128z"  horiz-adv-x="1024" />

    
    <glyph glyph-name="pressure-sensor" unicode="&#58892;" d="M563.2 556.0319999999999h-17.408V816.128a34.816 34.816 0 0 1-68.608 0v-260.096H460.8a102.4 102.4 0 0 1-102.4-98.816v-311.808a99.328 99.328 0 0 1 70.656-94.208v-66.56h37.376V-76.79999999999995h91.136v61.44h37.376v66.56A99.328 99.328 0 0 1 665.6 145.40800000000002V457.216a102.4 102.4 0 0 1-102.4 98.816z m-38.4-278.528a15.36 15.36 0 0 0-21.504 0 14.336 14.336 0 0 0-3.584 15.872l-16.896 16.384a5.632 5.632 0 0 0 0 8.192 6.656 6.656 0 0 0 8.704 0l16.896-16.384a15.872 15.872 0 0 0 16.384-3.584 14.336 14.336 0 0 0 0-20.992zM512 351.23199999999997a59.904 59.904 0 0 1-60.416-58.88 7.168 7.168 0 0 0-14.336 0 71.68 71.68 0 0 0 22.016 51.2 76.288 76.288 0 0 0 105.984 0 71.168 71.168 0 0 0 22.016-51.2 7.168 7.168 0 0 0-14.336 0A59.904 59.904 0 0 1 512 351.23199999999997z m102.4-102.4a102.4 102.4 0 0 0-23.552-34.816 10.752 10.752 0 0 0-15.36 0 10.24 10.24 0 0 0 0 14.848 82.432 82.432 0 0 1 0 118.784 88.064 88.064 0 0 1-122.368 0 82.432 82.432 0 0 1 0-118.784 10.24 10.24 0 0 0 0-14.848 10.752 10.752 0 0 0-15.36 0 102.4 102.4 0 0 0-28.16 37.376 102.4 102.4 0 0 0 0 78.848 102.4 102.4 0 0 0 23.552 34.816 107.52 107.52 0 0 0 35.84 23.04 111.616 111.616 0 0 0 81.408 0 107.52 107.52 0 0 0 35.84-23.04 102.4 102.4 0 0 0 23.552-34.816 102.4 102.4 0 0 0 0-78.848z"  horiz-adv-x="1024" />

    
    <glyph glyph-name="power-supply" unicode="&#58884;" d="M706.751929 557.368732c-40.372922 1.309636-80.858743 0.541918-126.763748 0.541918 11.831885 60.943241 22.421874 115.789901 33.327982 170.591401 3.31925 16.776891 5.622404 34.00538-12.215744 42.811554-17.589768 8.693275-29.444234-3.27409-40.282602-16.528511-80.610364-98.425932-161.717486-196.445424-241.853671-295.345535-7.609438-9.370673-9.573892-23.550871-14.112459-35.495656 12.238324-4.899846 24.318589-13.344741 36.782712-14.067299 34.682778-1.941874 69.523616-0.677398 107.345006-0.677398-3.748269-13.051202-5.870783-21.631577-8.693275-30.008732-17.702668-53.062845-36.556913-105.74183-52.566086-159.346593-3.34183-11.222227 3.770849-25.718545 6.028842-38.702007 13.231841 3.612789 30.84419 2.754752 38.972966 11.425447a25949.988975 25949.988975 0 0 1 294.329438 319.912503c7.044939 7.790077 11.357707 23.82183 8.512635 33.418302-1.941874 6.412701-18.605865 11.177067-28.811996 11.470606zM440.105491 249.92035299999998l-6.074003 3.43215c9.596472 29.376494 19.057464 58.798148 28.766836 88.129482 6.548181 19.667122 13.79634 39.131025 20.118721 58.888467 10.477089 32.537685 4.222448 41.614818-28.473296 41.795458-33.169923 0.15806-66.317266 0.04516-106.961147 0.045159l222.096229 271.139846 5.261125-2.732172c-8.106196-42.292216-16.009173-84.584432-24.341169-126.786328-9.415832-47.84688-2.416053-57.465932 43.759912-58.527189 29.037795-0.654818 58.05301-1.038677 87.090805-1.603175 0.858037 0 1.693495-0.496759 7.993296-2.528953-84.177993-91.651951-166.707652-181.452348-249.237309-271.252745zM900.194223 754.514135C900.058743 832.956825 861.018037 879.923087 788.51387 880.623065 603.358412 882.4972 418.180375 882.29398 233.024917 880.735965 163.343241 880.194046 123.692878 834.289041 123.647718 762.100992v-383.610496c0-129.67656-0.1129-259.35312 0.203219-389.02968 0.02258-13.435061 0.745138-27.4572 4.470827-40.147123 14.767277-50.579052 55.501477-77.155634 117.167277-77.200793 175.468666-0.15806 350.914752-0.1129 526.360838-0.04516 87.000485 0.04516 128.344344 42.405116 128.434663 131.550694 0.06774 94.316384 0 188.632767 0 282.903992 0 156.049923 0.225799 312.009526-0.090319 467.991709zM182.197486 172.62923899999998c0 192.222977-0.02258 384.445954 0.04516 576.691511 0 53.243484 14.496318 68.16882 65.685028 68.16882 177.184741 0 354.369482 0.04516 531.576802-0.02258 40.89226-0.04516 58.459449-17.11559 58.482029-59.136847 0.316119-198.567938 0.180639-397.158456 0.09032-595.681235 0-6.141742-1.016097-12.260904-1.716075-19.960661H182.197486v29.940992zM837.715546-19.11955899999998c-0.925777-28.157178-21.496097-44.776009-52.543506-44.843749-75.733098-0.270959-151.466196-0.06774-227.199295-0.067739-104.816053 0-209.632106-0.09032-314.425579 0-43.511533 0.02258-59.294906 15.805954-59.836824 60.017464-0.338699 30.77645 0.225799 61.57548-0.15806 92.397089-0.180639 13.028622 3.36441 20.096141 17.770408 20.073561 208.728908-0.406439 417.457817-0.429019 626.209306-0.677398 2.393473 0 4.809526-1.670915 10.567409-3.770849-0.02258-41.795458 0.948357-82.484498-0.383859-123.128379z m-516.290188 12.938302h81.174863v34.502139h-81.174863v-34.502139z m-105.877309 0h81.174862v34.502139H215.548049v-34.502139z"  horiz-adv-x="1024" />

    
    <glyph glyph-name="fan-fill" unicode="&#58885;" d="M397.022977 615.670121c20.57032-14.564057 38.476207-32.989283 52.069327-44.911488 33.531202 6.277222 65.775347 12.283484 103.912856 19.373583 1.016097 7.248159 3.996648 23.279912 5.374024 39.469724 5.577244 64.014112-30.370011 122.496141-85.623109 140.22139-52.611246 16.867211-99.193649 0.654818-119.741389-41.637398-19.847762-40.93742-4.267607-78.329791 44.008291-112.515811z m27.592679-116.715678c-29.602293-16.709151-55.343418-27.592679-76.839515-44.076031-50.150033-38.295568-63.268975-101.225843-35.721455-156.433781 19.125204-38.431047 54.869239-58.05301 93.209967-51.16613 36.534333 6.503021 59.001367 36.602073 63.788313 81.445821 3.228931 29.444234 9.370673 58.594928 14.564057 90.048776-32.537685 7.722337-51.14355 34.321499-59.001367 80.181345zM705.261654-39.71245899999997c-17.996207 10.22871-37.43753 18.470386-53.514443 31.160309-24.973407 19.667122-47.62108 42.382536-73.633165 65.978567h-134.463506c-20.209041-20.660639-36.037574-40.86968-55.749856-55.953076-21.157398-16.234972-45.950165-27.705579-69.162338-41.1858-33.508622-19.463903-46.921103-47.91462-37.889129-88.287541h462.278986c8.806174 40.372922-3.996648 69.072018-37.866549 88.287541z m-190.484322 588.342757c-28.224917 1.287056-50.127453-18.312326-51.662889-46.175965-1.490276-27.073341 19.463903-50.872591 46.221125-52.453186 26.576582-1.603175 50.195193 19.825182 51.685468 46.943682 1.558015 27.728159-18.741345 50.443572-46.243704 51.685469zM511.254862 885.229372C301.374377 884.777773 131.821654 712.447718 132.024873 499.722161c0.15806-214.599691 169.755943-385.213671 382.45892-384.920132 209.383727 0.293539 378.033252 173.052613 377.468754 386.636207C891.433208 714.073473 721.225667 885.68097 511.254862 885.229372z m-1.128997-727.977068c-186.487674 0.383859-338.473208 155.711224-337.231312 344.592371 1.287056 189.084366 153.76935 341.36344 341.227961 340.731202 186.645733-0.564498 337.660331-155.078986 336.960353-344.77301-0.632238-188.790827-153.024212-340.957001-340.957002-340.550563z m271.501125 374.691423c-24.070209 29.331334-58.888467 34.434399-101.135524 16.302712-27.773319-11.967365-56.224035-22.263815-85.37473-33.689261 12.373804-35.134377-6.84172-62.478677-37.911708-90.816494 26.192723-16.347872 48.004939-33.869901 72.729966-44.57279 58.278809-25.199206 114.706064-8.467475 150.811379 41.02774 28.202337 38.747166 28.541036 78.081411 0.880617 111.748093z"  horiz-adv-x="1024" />

    
    <glyph glyph-name="walkie-talkie" unicode="&#58901;" d="M493.913473 64.90037500000005a7.067519 7.067519 0 0 1-7.225579 6.8643h-21.699316a7.090099 7.090099 0 0 1-7.248159-6.8643v-20.57032c0-3.793429 3.27409-6.8643 7.248159-6.8643h21.699316c3.974068 0 7.225579 3.070871 7.225579 6.8643v20.57032z m28.924895 109.783638h-21.676736a7.067519 7.067519 0 0 1-7.248159-6.8643v-20.570319c0-3.793429 3.25151-6.8643 7.248159-6.8643h21.676736a7.067519 7.067519 0 0 1 7.248159 6.8643v20.570319c0.02258 3.770849-3.25151 6.8643-7.248159 6.8643z m133.921588 598.074708c0 28.428137-24.318589 51.459669-54.282161 51.459669s-54.282161-23.031533-54.282161-51.459669V687.361411h108.586902V772.758721zM620.541742 721.682911H584.368688V772.758721c0 9.483572 8.061036 17.13817 18.086527 17.13817 9.957751 0 18.086527-7.654598 18.086527-17.13817V721.682911z m-90.432635-608.755017c0-3.770849 3.25151-6.8643 7.225579-6.8643h21.699316a7.067519 7.067519 0 0 1 7.248159 6.8643v20.57032a7.090099 7.090099 0 0 1-7.248159 6.88688h-21.699316a7.090099 7.090099 0 0 1-7.225579-6.88688v-20.57032z m-72.391268-13.70602c0 3.770849-3.25151 6.84172-7.248159 6.84172h-21.699316c-3.996648 0-7.248159-3.070871-7.248159-6.84172v-20.570319c0-3.770849 3.25151-6.88688 7.248159-6.88688h21.699316a7.090099 7.090099 0 0 1 7.248159 6.88688v20.570319zM765.324278 653.039912h-326.280044V721.095832c0 18.741345-15.896273 33.892481-35.585976 34.18602V841.717839c0 28.405557-24.318589 51.459669-54.282161 51.459669S294.893936 870.123396 294.893936 841.717839v-86.300507h-0.564498c-20.005821 0-36.195634-15.376935-36.195634-34.3215v-68.16882c-39.695524-0.270959-71.80419-30.75387-71.80419-68.484939v-343.056935c0-25.086307 14.902756-46.130805 36.195634-58.09817v-234.808732c0-37.843969 38.882646-68.597839 86.865006-68.597839h405.309812c47.959779 0 86.865006 30.73129 86.865006 68.597839v234.831312c21.247718 11.944785 36.173054 33.011863 36.173054 58.09817V584.4420729999999c-0.04516 37.889129-32.469945 68.597839-72.413848 68.597839z m36.195634-411.654774c0-5.825623-1.987034-11.086748-4.719206-15.896274a35.924675 35.924675 0 0 0-31.499008-18.357486v-258.630562c0-18.921985-16.234972-34.27634-36.195634-34.27634H294.871356c-19.960662 0-36.195634 15.331775-36.195634 34.27634V207.13137800000004a36.037574 36.037574 0 0 0-31.499008 18.357486 31.815127 31.815127 0 0 0-4.696626 15.896274V584.4420729999999c0 18.718765 15.918853 33.892481 35.631136 34.18602 0.225799 0 0.361279 0.13548 0.564498 0.135479h35.631136V714.254112c0 2.822492 2.009614 4.719206 4.561146 5.825623 0.858037 0.429019 1.670915 1.016097 2.664433 1.016097h29.534553V841.717839c0 9.483572 8.083616 17.13817 18.086527 17.13817 10.002911 0 18.086527-7.654598 18.086527-17.13817v-120.622007h28.382977c1.445116 0 2.574112-0.745138 3.680529-1.445115 1.941874-1.241896 3.56763-3.003131 3.56763-5.396605v-95.49054h362.453098c19.983241 0 36.218214-15.376935 36.218214-34.321499v-343.056935z m-242.48591-169.620463h-21.699316a7.044939 7.044939 0 0 1-7.225579-6.8643v-20.57032c0-3.793429 3.25151-6.8643 7.225579-6.8643h21.699316a7.044939 7.044939 0 0 1 7.248159 6.8643v20.57032a7.044939 7.044939 0 0 1-7.248159 6.8643z m36.195634 34.321499H573.53032a7.044939 7.044939 0 0 1-7.248159-6.84172v-20.570319c0-3.770849 3.25151-6.88688 7.248159-6.88688h21.699316c3.996648 0 7.225579 3.116031 7.225579 6.88688v20.570319c0.02258 3.748269-3.228931 6.84172-7.225579 6.84172z m-101.316163-27.434619c0-3.770849 3.25151-6.88688 7.248159-6.88688h21.676736a7.090099 7.090099 0 0 1 7.248159 6.88688v20.570319c0 3.770849-3.27409 6.84172-7.248159 6.84172h-21.676736c-3.996648 0-7.248159-3.070871-7.248159-6.84172v-20.570319z m162.846483 437.215259H367.240044c-19.960662 0-36.195634-15.376935-36.195634-34.3215v-137.240838c0-18.899405 16.234972-34.27634 36.195634-34.276339h289.519912c19.983241 0 36.195634 15.354355 36.195634 34.276339v137.240838c-0.02258 18.921985-16.212393 34.321499-36.195634 34.3215z m0-164.698038c0-3.748269-3.27409-6.8643-7.248159-6.8643h-275.023594a7.090099 7.090099 0 0 0-7.248159 6.8643v123.534818c0 3.770849 3.25151 6.84172 7.248159 6.84172h275.001014c3.996648 0 7.248159-3.070871 7.248159-6.84172v-123.534818z m-133.921588-313.680441h-21.676736a7.090099 7.090099 0 0 1-7.248159-6.8643v-20.592899c0-3.770849 3.25151-6.8643 7.248159-6.8643h21.676736a7.090099 7.090099 0 0 1 7.248159 6.8643v20.592899c0.02258 3.748269-3.25151 6.8643-7.248159 6.8643z m-36.173054 102.919339h-21.699316a7.112679 7.112679 0 0 1-7.248159-6.88688v-20.57032c0-3.770849 3.27409-6.8643 7.248159-6.8643h21.699316c3.974068 0 7.225579 3.093451 7.225579 6.8643v20.57032c0.02258 3.748269-3.25151 6.88688-7.225579 6.88688z"  horiz-adv-x="1024" />

    
    <glyph glyph-name="led" unicode="&#58919;" d="M498.2714 283.31607499999996h54.84666v54.846659h-54.84666v-54.846659z m-164.517398 0h54.84666v54.846659h-54.84666v-54.846659z m0-82.258699h54.84666v54.869239h-54.84666v-54.869239zM59.543286 584.961411H4.696626v-54.846659h54.84666v54.846659z m329.057376 0h-54.84666v-54.846659h54.84666v54.846659z m-54.84666-548.421433h54.84666v54.846659h-54.84666v-54.846659z m137.105359 548.421433h-54.84666v-54.846659h54.84666v54.846659z m-54.84666-548.421433h54.84666v54.846659h-54.84666v-54.846659z m-82.258699 411.316075h54.84666v54.846659h-54.84666v-54.846659z m0-329.057376h54.84666v54.846659h-54.84666v-54.846659z m82.258699 164.517398h54.84666v54.846659h-54.84666v-54.846659z m-82.258699 82.258699h54.84666v54.846659h-54.84666v-54.846659zM59.543286 338.162734H4.696626v-54.846659h54.84666v54.846659z m0-82.258699H4.696626v-54.869239h54.84666v54.869239z m0 246.798677H4.696626v-54.846659h54.84666v54.846659z m0-82.281279H4.696626v-54.846659h54.84666v54.846659z m0-246.776097H4.696626v-54.846659h54.84666v54.846659z m191.952017-82.281279v-54.846659h54.84666v54.846659h-54.84666z m-191.952017 0H4.696626v-54.846659h54.84666v54.846659z m109.693318 0v-54.846659h54.84666v54.846659H169.236604z m-82.258699 0v-54.846659H141.801985v54.846659H86.977905zM4.696626-128H1019.258214v54.846659H4.696626v-54.846659z m658.114752 411.316075h54.869239v54.846659h-54.869239v-54.846659z m301.645336 301.645336h-54.869239v-54.846659h54.869239v54.846659z m-54.869239-548.421433h54.869239v54.846659h-54.869239v-54.846659z m-109.670739 548.421433h-54.824079v-54.846659h54.824079v54.846659z m27.43462-548.421433h54.82408v54.846659h-54.82408v-54.846659z m54.8015 548.421433H827.328776v-54.846659h54.82408v54.846659z m82.303858-466.162734h54.82408v54.846659h-54.82408v-54.846659zM4.696626 749.478809v-54.846659H1019.258214V749.478809H4.696626z m959.760088-301.622756h54.82408v54.846659h-54.82408v-54.846659z m0-246.798677h54.82408v54.869239h-54.82408v-54.869239z m0 164.517398h54.82408v54.846659h-54.82408v-54.846659z m0-82.258699h54.82408v54.846659h-54.82408v-54.846659zM553.11806 584.961411h-54.84666v-54.846659h54.84666v54.846659z m109.693318-137.105358h54.869239v54.846659h-54.869239v-54.846659z m82.281279-411.316075h54.824079v54.846659h-54.824079v-54.846659z m-109.715898 548.421433h-54.82408v-54.846659h54.82408v54.846659z m-54.82408-548.421433h54.82408v54.846659h-54.82408v-54.846659z m-82.281279 0h54.84666v54.846659h-54.84666v-54.846659z m219.386637 548.421433h-54.869239v-54.846659h54.869239v54.846659z m-54.846659-548.421433h54.869239v54.846659h-54.869239v-54.846659z m0 82.258699h54.869239v54.846659h-54.869239v-54.846659z m0 246.776097h54.869239v54.846659h-54.869239v-54.846659z m0-164.517398h54.869239v54.869239h-54.869239v-54.869239z"  horiz-adv-x="1024" />

    
    <glyph glyph-name="robot" unicode="&#58893;" d="M965.811 53.337999999999965h-36.727v57.986c0 10.678-8.653 19.331-19.329 19.331h-77.317c-10.676 0-19.329-8.653-19.329-19.331v-57.986h-40.063c-9.408 65.479-65.859 115.977-133.903 115.977h-30.927s-0.143 128.096-0.404 129.367c2.312 28.656-7.444 58.113-29.319 79.988L476.324 480.841l120.973 120.974a81.956 81.956 0 0 1 14.606 19.811h120.023c10.677 0 19.33 8.654 19.33 19.33v19.326h45.102v-19.359a19.328 19.328 0 0 1 9.666-16.739l67.01-38.686a19.303 19.303 0 0 1 9.665-2.591c3.338 0 6.674 0.864 9.664 2.591l67.01 38.687c9.246 5.337 12.414 17.16 7.075 26.404-5.338 9.245-17.162 12.414-26.404 7.075l-57.345-33.105-47.681 27.527v55.058l47.681 27.527 57.345-33.107c9.246-5.339 21.068-2.17 26.404 7.074 5.339 9.246 2.171 21.068-7.075 26.405l-67.01 38.687a19.323 19.323 0 0 1-19.329 0l-67.01-38.687a19.329 19.329 0 0 1-9.666-16.74v-19.359h-45.102v19.33c0 10.676-8.653 19.329-19.33 19.329H565.824c-28.727 9.789-61.832 3.26-84.703-19.609L340.497 577.367c-52.052-9.217-91.723-54.752-91.723-109.412 0-36.566 17.757-69.059 45.095-89.325a101.55 101.55 0 0 1 11.768-14.135l105.86-105.858v-89.322H387.86c-68.043 0-124.493-50.497-133.903-115.977h-40.064v57.986c0 10.678-8.653 19.331-19.331 19.331h-77.317c-10.676 0-19.33-8.653-19.33-19.331v-57.986H61.189c-10.676 0-19.329-8.653-19.329-19.327 0-10.678 8.653-19.331 19.329-19.331H965.81c10.676 0 19.329 8.653 19.329 19.331 0.001 10.674-8.653 19.327-19.328 19.327zM712.595 698.943v-38.66h-91.286c-0.063 13.325-3.344 26.635-9.833 38.66h101.119zM175.233 53.337999999999965h-38.659v38.659h38.66v-38.659h-0.001z m333.221 637.319c8.215 8.214 19.134 12.738 30.752 12.738 11.619 0 22.538-4.523 30.753-12.738 16.957-16.957 16.957-44.548 0-61.507L459.008 518.1949999999999c-13.615 26.749-37.724 47.281-66.884 56.128l116.33 116.334zM287.428 467.955c0 39.968 32.517 72.486 72.485 72.486 39.969 0 72.486-32.519 72.486-72.486s-32.517-72.486-72.486-72.486-72.485 32.518-72.485 72.486z m80.262-110.841c46.786 3.252 85.68 35.569 98.694 78.991l84.772-84.772c24.493-24.494 24.493-64.347 0-88.84-11.868-11.866-27.641-18.399-44.422-18.399-16.779 0-32.555 6.533-44.42 18.399l-94.624 94.621z m201.866-129.876v-57.928H450.155v53.366c17.042-11.454 36.805-17.201 56.58-17.201 22.242 0.004 44.469 7.273 62.821 21.763z m-276.404-173.9c8.981 44.06 48.033 77.317 94.708 77.317h251.282c46.672 0 85.724-33.258 94.708-77.317H293.152z m597.274 0h-38.66v38.659h38.66v-38.659zM359.913 487.286c-10.657 0-19.33-8.672-19.33-19.331 0-10.658 8.672-19.331 19.33-19.331 10.659 0 19.331 8.673 19.331 19.331 0 10.659-8.672 19.331-19.331 19.331z"  horiz-adv-x="1024" />

    
    <glyph glyph-name="scan" unicode="&#58904;" d="M212.924 461.44h-60.881V824.092h60.881V461.44z m149.56 362.652h-86.03V461.44h86.03V824.092z m111.842 0H431.31V461.44h43.015l0.001 362.652z m151.544 0H525.28V461.44h100.59V824.092z m88.676 0h-25.148V461.44h25.148V824.092z m70.148 0h-33.089V461.44h33.089V824.092z m91.326 0h-64.854V461.44h64.854V824.092z m-6.285-394.083h-58.569V257.20000000000005h58.569V430.009z m121.27 31.431h-86.91v-31.433h86.91V461.44zM211.77 434.051h-58.572v-172.808h58.57V434.051h0.002z m-89.866 27.389H34.995v-31.433h86.909V461.44z m600.584-126.252v-34.613a270.753 270.753 0 0 0-48.906-155.214L600.72 41.21799999999996v-93.31H419.4v93.31l-72.862 104.143a270.76 270.76 0 0 0-48.906 155.214v34.613c0 37.384 30.305 67.69 67.691 67.69h289.474c37.385-0.002 67.691-30.309 67.691-67.69z m-106.356-20.384H395.72c21.622-38.569 62.84-64.677 110.205-64.677s88.584 26.104 110.207 64.677z"  horiz-adv-x="1024" />

    
    <glyph glyph-name="app-upgrade" unicode="&#58900;" d="M512 894.88C229.888 894.88 1.056 666.144 1.056 384S229.888-126.91200000000003 512-126.91200000000003c282.048 0 510.912 228.672 510.912 510.912C1022.944 666.208 794.048 894.88 512 894.88z m1.696-978.208c-257.024 0-465.344 208.416-465.344 465.536 0 257.056 208.32 465.44 465.44 465.44s465.536-208.384 465.536-465.44c0-257.152-208.416-465.536-465.536-465.536h-0.096zM189.792 91.93600000000004l90.912 236.672h33.728l96.992-236.672H375.68l-27.648 71.648H249.024l-25.952-71.648h-33.28z m68.256 97.216h80.288l-24.64 65.568a635.776 635.776 0 0 0-16.8 49.024 302.208 302.208 0 0 0-12.768-45.184l-26.08-69.408z m178.336-97.216v236.672h89.344c15.744 0 27.776-0.704 36.064-2.208 11.616-1.984 21.376-5.6 29.248-11.104 7.84-5.44 14.112-13.056 18.912-22.784 4.896-10.048 7.328-21.152 7.264-32.32 0-20.096-6.496-37.12-19.264-51.104-12.864-13.984-36.032-21.024-69.536-20.928h-60.608v-96.224h-31.424z m31.392 116.576h61.152c20.288 0 34.656 3.84 43.168 11.264 8.512 7.584 12.736 18.208 12.736 31.904 0 9.92-2.496 18.368-7.488 25.408a35.136 35.136 0 0 1-19.712 13.984c-5.312 1.344-15.104 2.112-29.248 2.112h-60.608v-84.672z m189.312-116.576v236.672h89.344c15.552 0 27.648-0.672 35.904-2.112 11.712-1.984 21.344-5.664 29.184-11.104 7.872-5.472 14.24-12.992 19.168-22.784 4.672-10.144 7.232-21.184 6.976-32.416 0-20.096-6.336-37.12-19.104-51.104-12.768-13.984-35.936-21.024-69.6-20.928h-60.608v-96.224h-31.264z m31.296 124.224h61.28c20.192 0 34.656 3.712 42.944 11.296 8.544 7.392 12.768 18.144 12.768 31.776 0 9.952-2.368 18.368-7.456 25.504a34.464 34.464 0 0 1-19.776 13.888c-5.344 1.472-14.88 2.144-29.152 2.144h-60.608v-84.608z m0 0M682.88 628.352l-137.28 169.952a37.024 37.024 0 0 1-51.872 0L341.12 631.8720000000001c-12.128-14.112-15.232-31.872-9.152-46.048 6.048-14.112 18.272-24.832 33.6-24.832h45.728c9.152 0 15.2-7.072 15.2-14.08v-17.696c0-7.072 6.176-14.08 12.224-14.08s12.224 7.04 12.224 14.08v53.12c0 7.072-6.176 14.08-12.224 14.08h-64.128c-6.048 0-9.024 7.072-9.024 7.072s-3.072 7.104 3.008 14.112L512 769.984c0 3.52 2.976 3.52 6.048 3.52s6.048 0 9.152-3.52l131.232-152.256c6.048-3.552 3.104-10.592 3.104-14.144 0 0-3.104-7.072-9.12-7.072h-64.128a14.72 14.72 0 0 1-15.232-14.08v-74.4c0-10.656-6.048-17.696-15.232-17.696h-125.152c-6.048 0-12.224-10.656-12.224-17.728 0-7.04 6.144-17.76 12.224-17.76h128.16c21.344 0 39.648 21.216 39.648 46.016V546.88c3.104 7.072 9.12 14.08 15.2 14.08h42.752c15.232 0 27.36 10.656 33.568 24.832 6.112 14.144 2.976 31.872-9.12 42.496v0.064z m-94.592-209.024h-152.512c-9.152 0-15.2-7.008-15.2-17.632 0-10.656 6.048-17.728 15.2-17.728h152.512c9.152 0 15.232 7.072 15.232 17.728-0.032 10.624-6.08 17.632-15.232 17.632z m0 0"  horiz-adv-x="1024" />

    
    <glyph glyph-name="wing" unicode="&#58896;" d="M431.63575949 390.17032588m-62.96858176 0a62.96858176 62.96858176 0 1 1 125.93716352 0 62.96858176 62.96858176 0 1 1-125.93716352 0ZM698.92252776 247.93494818c-95.70279591 0-173.55235525 77.85940147-173.55235604 173.55235604a31.72049672 31.72049672 0 0 0 31.70081326 31.4941326h2.69668505l9.18250798 0.05905117c7.78495563 0 18.91616381 0.05905118 32.27164457 0.08857753 25.78582088 0 60.48841871 0.06889329 97.72038864 0.06889329s71.93456774 0 97.7203894-0.06889329c13.35548078 0 24.47684606-0.04920982 32.27164381-0.08857753l9.17266662-0.05905117h2.69668505a31.72049672 31.72049672 0 0 0 31.70081249-31.4941326c-0.01968347-95.69295379-77.87908493-173.55235525-173.58188083-173.55235604zM592.86603563 390.22937706a110.58377349 110.58377349 0 0 1 212.11298423 0c-54.25848548 0.06889329-157.87418224 0.06889329-212.11298422 0zM341.88732289 451.45593924a31.49413262 31.49413262 0 0 0-15.74706631 4.21234051c-7.24365065 4.1729728-10.34385409 9.44823979-13.08974896 14.10346639-1.09245283 1.84043845-2.66715947 4.53712349-4.66506873 7.96211068-3.93676657 6.75155473-9.52697519 16.3769488-16.21947797 27.92151672-12.92243603 22.29194117-30.26389321 52.28026044-48.8355898 84.44364404s-35.87378528 62.18122844-48.71748667 84.51253655c-6.65313586 11.56425216-12.19413465 21.21917182-16.07185006 28.01009426-1.96838367 3.44467065-3.51356394 6.15119782-4.56664908 8.02116185-2.65731734 4.69459431-5.65910191 10.01907111-5.6591019 18.36501671a31.49413262 31.49413262 0 0 0 15.74706631 27.28179211c82.87877875 47.85139795 189.23052827 19.34920779 237.08192698-63.52957098s19.34920779-189.23052827-63.52957097-237.08192621a31.49413262 31.49413262 0 0 0-15.72738284-4.22218263zM244.93460334 713.47728264c27.03574453-47.05420252 78.82390906-136.75343007 106.05649211-183.68952947A110.58377349 110.58377349 0 0 1 244.93460334 713.47728264zM215.60569215 701.75555966zM254.08758573-11.5078125a31.49413262 31.49413262 0 0 0-15.74706631 4.22218186 173.55432429 173.55432429 0 0 0 173.54251313 300.61149796 31.49413262 31.49413262 0 0 0 15.74706707-27.24242517c0-8.36562907-3.00178456-13.69994799-5.6591019-18.40438365-1.05308512-1.8601219-2.59826618-4.5764912-4.56664984-8.02116186-3.87771541-6.78108032-9.41871421-16.43600075-16.07184929-28.01009425-12.84370138-22.33130888-30.14579009-52.34915374-48.71748668-84.51253732s-35.91315299-62.15170285-48.83558978-84.44364327c-6.69250357-11.54456792-12.2827114-21.16996276-16.21947876-27.92151749-1.96838367-3.42498719-3.57261589-6.12167224-4.66506796-7.96210991-2.73605275-4.64538448-5.84609831-9.91081012-13.07990684-14.09362504a31.49413262 31.49413262 0 0 0-15.72738284-4.22218186z m15.68801514 58.80545107h0.05905117z m55.498567 206.33577922a111.10539499 111.10539499 0 0 1-28.78760623-3.81866346 110.65266755 110.65266755 0 0 1-51.54211618-183.05964697c27.22274093 46.93609941 79.05027317 136.70422025 106.09585982 183.75842276a109.15669555 109.15669555 0 0 1-25.76613741 3.11988767z m55.11473206-14.84160988l0.08857753-0.04920982z"  horiz-adv-x="1024" />

    
    <glyph glyph-name="icon-temperature" unicode="&#58953;" d="M716.444246 150.998058a276.877953 276.877953 0 0 0-82.062143-197.31892A278.883284 278.883284 0 0 0 436.437407-127.999004a278.883284 278.883284 0 0 0-197.944697 81.678142A276.892175 276.892175 0 0 0 156.44479 150.998058c0 72.391041 27.932417 141.226529 77.809702 193.023812V727.609053c0 48.071064 24.40531 93.596353 66.033714 124.984767C337.607281 880.725348 385.9059 896 436.437407 896c50.545729 0 98.844348-15.274652 136.163423-43.40618 41.628404-31.388414 66.033714-76.913703 66.033714-124.984767V344.036092a277.688619 277.688619 0 0 0 77.809702-193.023812zM574.634606 727.609053c0 27.235529-14.449764 54.186614-40.561739 73.884372C508.160004 821.020517 473.443593 832.000062 436.437407 832.000062c-36.991964 0-71.722597-10.979545-97.621239-30.506637-26.111975-19.683536-40.561738-46.648844-40.561738-73.884372v-410.794268l-10.097768-9.486213A213.788237 213.788237 0 0 1 220.444728 150.998058c0-57.457722 22.399978-111.331447 63.217716-151.978519A214.883347 214.883347 0 0 1 436.437407-63.999067a214.897569 214.897569 0 0 1 152.789185 63.018606 212.892237 212.892237 0 0 1 63.217716 151.978519c0 59.448831-24.391087 115.654999-67.711934 156.330514l-10.097768 9.486213V727.609053zM488.192023 275.854825V697.031305c0 21.518201-23.1822 38.968851-51.754616 38.968851s-51.740394-17.45065-51.740394-38.968851v-421.17648c-44.913734-19.76887-76.245259-64.497715-76.24526-116.508331 0-70.328821 57.301278-127.345654 127.999876-127.345654 70.684376 0 127.999876 57.016833 127.999876 127.345654 0 52.024838-31.345747 96.739462-76.259482 116.508331zM684.444277 675.200215c0 24.490643 14.591986 54.442614 38.940406 88.87458a535.423479 535.423479 0 0 0 37.247964 46.719955l11.804433 12.942209 11.818655-12.942209 3.313775-3.726219a535.423479 535.423479 0 0 0 33.934189-42.993736c8.519103-12.046211 15.943096-23.779532 21.987534-35.015077 10.865767-20.195536 16.952872-38.129741 16.952873-53.859503 0-54.314614-38.840851-99.199904-87.992804-99.199904-49.166174 0-88.007026 44.88529-88.007025 99.199904z m65.066603 70.399931c-20.664869-29.226638-33.066635-54.684391-33.066634-70.399931 0-37.589297 25.62842-67.199935 56.007056-67.199935 30.364415 0 55.992834 29.610638 55.992835 67.199935 0 9.329769-4.551107 22.755533-13.141321 38.712851a310.598809 310.598809 0 0 1-19.911092 31.68708 501.546179 501.546179 0 0 1-22.940422 29.866638c-7.836437-9.471991-15.644429-19.569759-22.940422-29.866638z"  horiz-adv-x="1024" />

    
    <glyph glyph-name="building" unicode="&#58992;" d="M409.770667 853.333333h-307.2c-37.546667 0-68.266667-30.72-68.266667-68.266666v-802.133334c0-37.546667 30.72-68.266667 68.266667-68.266666h307.2a68.266667 68.266667 0 0 1 68.266666 68.266666v802.133334a68.266667 68.266667 0 0 1-68.266666 68.266666z m-103.5264-782.933333h-102.4c-18.773333 0-34.133333 15.36-34.133334 34.133333s15.36 34.133333 34.133334 34.133334h102.4c18.773333 0 34.133333-15.36 34.133333-34.133334s-15.36-34.133333-34.133333-34.133333z m0 187.733333h-102.4c-18.773333 0-34.133333 15.36-34.133334 34.133334s15.36 34.133333 34.133334 34.133333h102.4c18.773333 0 34.133333-15.36 34.133333-34.133333s-15.36-34.133333-34.133333-34.133334z m0 187.733334h-102.4c-18.773333 0-34.133333 15.36-34.133334 34.133333s15.36 34.133333 34.133334 34.133333h102.4c18.773333 0 34.133333-15.36 34.133333-34.133333s-15.36-34.133333-34.133333-34.133333z m0 187.733333h-102.4c-18.773333 0-34.133333 15.36-34.133334 34.133333s15.36 34.133333 34.133334 34.133334h102.4c18.773333 0 34.133333-15.36 34.133333-34.133334s-15.36-34.133333-34.133333-34.133333zM921.429333 494.933333h-307.2a68.266667 68.266667 0 0 1-68.266666-68.266666v-443.733334a68.266667 68.266667 0 0 1 68.266666-68.266666h307.2c37.546667 0 68.266667 30.72 68.266667 68.266666v443.733334c0 37.546667-30.72 68.266667-68.266667 68.266666z m-103.185066-424.533333h-102.4c-18.773333 0-34.133333 15.36-34.133334 34.133333s15.36 34.133333 34.133334 34.133334h102.4c18.773333 0 34.133333-15.36 34.133333-34.133334s-15.36-34.133333-34.133333-34.133333z m0 187.733333h-102.4c-18.773333 0-34.133333 15.36-34.133334 34.133334s15.36 34.133333 34.133334 34.133333h102.4c18.773333 0 34.133333-15.36 34.133333-34.133333s-15.36-34.133333-34.133333-34.133334z"  horiz-adv-x="1024" />

    
    <glyph glyph-name="power" unicode="&#58880;" d="M756.622 685.511L716.8 645.69c79.644-68.267 136.533-170.667 136.533-290.133 0-204.8-164.977-369.778-369.777-369.778S113.778 150.75599999999997 113.778 355.55600000000004c0 119.466 56.889 227.555 147.91 295.822L221.868 691.2c-102.4-73.956-164.978-199.111-164.978-335.644 0-233.245 193.422-426.667 426.667-426.667S910.222 122.30999999999995 910.222 355.55600000000004c0 130.844-62.578 250.31-153.6 329.955zM455.111 839.111H512v-512h-56.889z"  horiz-adv-x="1024" />

    
    <glyph glyph-name="bangding" unicode="&#59323;" d="M716.5 436.1v-420c0-44-36-80-80-80h-490c-44 0-80 36-80 80v420c0 44 36 80 80 80H219v-50h-72.4c-7.9 0-15.4-3.1-21.1-8.9-5.7-5.7-8.9-13.2-8.9-21.1v-420c0-7.9 3.1-15.4 8.9-21.1 5.7-5.7 13.2-8.9 21.1-8.9h490c7.9 0 15.4 3.1 21.1 8.9 5.7 5.7 8.9 13.2 8.9 21.1v420c0 7.9-3.1 15.4-8.9 21.1-5.7 5.7-13.2 8.9-21.1 8.9H437v50h199.5c44 0 80-36 80-80z m162.2 396h-490c-44 0-80-36-80-80v-420c0-44 36-80 80-80h190v50h-190c-7.9 0-15.4 3.1-21.1 8.9-5.7 5.7-8.9 13.2-8.9 21.1v420c0 7.9 3.1 15.4 8.9 21.1 5.7 5.7 13.2 8.9 21.1 8.9h490c7.9 0 15.4-3.1 21.1-8.9 5.7-5.7 8.9-13.2 8.9-21.1v-420c0-7.9-3.1-15.4-8.9-21.1-5.7-5.7-13.2-8.9-21.1-8.9h-81.9v-50h81.9c44 0 80 36 80 80v420c0 44-36 80-80 80z"  horiz-adv-x="1024" />

    
    <glyph glyph-name="unbind" unicode="&#59324;" d="M152.7 718.1l750.7-629.9-32.1-38.3-750.7 629.9 32.1 38.3z m726 114h-490c-44 0-80-36-80-80v-47.8h50v47.8c0 7.9 3.1 15.4 8.9 21.1 5.7 5.7 13.2 8.9 21.1 8.9h490c7.9 0 15.4-3.1 21.1-8.9 5.7-5.7 8.9-13.2 8.9-21.1v-420c0-7.9-3.1-15.4-8.9-21.1-5.7-5.7-13.2-8.9-21.1-8.9h-81.9v-50h81.9c44 0 80 36 80 80v420c0 44-36 80-80 80z m-212.2-816c0-7.9-3.1-15.4-8.9-21.1-5.7-5.7-13.2-8.9-21.1-8.9h-490c-7.9 0-15.4 3.1-21.1 8.9-5.7 5.7-8.9 13.2-8.9 21.1v420c0 7.9 3.1 15.4 8.9 21.1 5.7 5.7 13.2 8.9 21.1 8.9H219v50h-72.4c-44 0-80-36-80-80v-420c0-44 36-80 80-80h490c44 0 80 36 80 80v93.2h-50v-93.2z"  horiz-adv-x="1024" />

    
    <glyph glyph-name="distance-sensor" unicode="&#58925;" d="M182.491429 745.142857l373.211428 0 0-729.051428-373.211428 0 0 729.051428ZM229.851429 268.43428600000004h309.028571a16.822857 16.822857 0 0 0 16.822857-16.822857v-188.16a47.36 47.36 0 0 0-47.36-47.36H229.851429A47.36 47.36 0 0 0 182.857143 63.45142899999996v157.622857a47.36 47.36 0 0 0 46.994286 47.36zM492.251429-11.337142999999969H245.76a91.428571 91.428571 0 0 0-91.428571 91.428572v601.6a91.428571 91.428571 0 0 0 91.428571 91.428571h246.491429a91.428571 91.428571 0 0 0 91.428571-91.428571v-602.331429a91.428571 91.428571 0 0 0-91.428571-90.697143zM245.76 717.714286a36.571429 36.571429 0 0 1-36.571429-36.571429v-601.782857a36.571429 36.571429 0 0 1 36.571429-36.571429h246.491429a36.571429 36.571429 0 0 1 36.571428 36.571429V681.691429a36.571429 36.571429 0 0 1-36.571428 36.571428zM334.262857 593.005714H182.857143a27.428571 27.428571 0 0 0 0 54.857143h151.771428a27.428571 27.428571 0 0 0 0-54.857143zM277.028571 475.428571H182.857143a27.428571 27.428571 0 0 0 0 54.857143h94.537143a27.428571 27.428571 0 0 0 0-54.857143zM334.262857 358.4H182.857143a27.428571 27.428571 0 1 0 0 54.857143h151.771428a27.428571 27.428571 0 0 0 0-54.857143zM277.028571 241.005714H182.857143a27.428571 27.428571 0 1 0 0 54.857143h94.537143a27.428571 27.428571 0 0 0 0-54.857143zM334.262857 123.61142900000004H182.857143a27.428571 27.428571 0 1 0 0 54.857142h151.771428a27.428571 27.428571 0 0 0 0-54.857142zM676.571429 232.594286a27.428571 27.428571 0 0 0-19.382858 46.811428 142.994286 142.994286 0 0 1 0 202.24A27.428571 27.428571 0 0 0 694.857143 520.411429a197.851429 197.851429 0 0 0 0-279.771429 27.977143 27.977143 0 0 0-18.285714-8.045714zM778.971429 129.828571a27.062857 27.062857 0 0 0-19.382858 8.045715 27.611429 27.611429 0 0 0 0 38.765714 288.548571 288.548571 0 0 1 0 407.954286 27.611429 27.611429 0 0 0 0 38.765714 27.245714 27.245714 0 0 0 38.765715 0 343.222857 343.222857 0 0 0 0-485.485714 26.514286 26.514286 0 0 0-19.382857-8.045715z"  horiz-adv-x="1024" />

    
    <glyph glyph-name="sensor" unicode="&#59042;" d="M466.2848 504.0896l34.1632 71.5008a12.8 12.8 0 0 0 23.104 0l34.1632-71.5008H819.2a32 32 0 0 0 32-32V89.60000000000002a32 32 0 0 0-32-32H204.8a32 32 0 0 0-32 32V472.0896a32 32 0 0 0 32 32h261.4848zM236.8 440.3072v-318.9248h550.4V440.3072H236.8z m128-229.6256c-38.88 0-70.4 31.4112-70.4 70.1632 0 38.752 31.52 70.1632 70.4 70.1632s70.4-31.4112 70.4-70.1632c0-38.752-31.52-70.1632-70.4-70.1632z m246.4 140.3264a22.4 22.4 0 0 0 22.4-22.4v-95.5264a22.4 22.4 0 1 0-44.8 0V328.60799999999995a22.4 22.4 0 0 0 22.4 22.4z m89.6 0a22.4 22.4 0 0 0 22.4-22.4v-95.5264a22.4 22.4 0 1 0-44.8 0V328.60799999999995a22.4 22.4 0 0 0 22.4 22.4z m-320.3968 261.376a32.0576 32.0576 0 0 0-43.5392 12.3072 31.8336 31.8336 0 0 0 12.352 43.392c101.12 56.256 212.224 56.256 330.016 1.0112a31.8464 31.8464 0 0 0 15.328-42.432 32.0448 32.0448 0 0 0-42.5792-15.2832c-99.8144 46.8096-189.2352 46.8096-271.5776 1.0112z"  horiz-adv-x="1024" />

    
    <glyph glyph-name="doorlock-o" unicode="&#60254;" d="M1141.33333321 768h256a32 32 0 0 0 32-32v-256a32 32 0 0 0-32-32H1141.33333321a32 32 0 0 0-32 32V736a32 32 0 0 0 32 32zM1293.33333321 240h416a56 56 0 1 0 0-112h-416a56 56 0 1 0 0 112zM368 688m-16 0a16 16 0 1 1 32 0 16 16 0 1 1-32 0ZM368 608m-16 0a16 16 0 1 1 32 0 16 16 0 1 1-32 0ZM368 528m-16 0a16 16 0 1 1 32 0 16 16 0 1 1-32 0ZM448 528m-16 0a16 16 0 1 1 32 0 16 16 0 1 1-32 0ZM528 688m-16 0a16 16 0 1 1 32 0 16 16 0 1 1-32 0ZM528 528m-16 0a16 16 0 1 1 32 0 16 16 0 1 1-32 0ZM624 479.856V736.144A47.92 47.92 0 0 1 576.144 784H319.856A47.92 47.92 0 0 1 272 736.144v-256.288A47.92 47.92 0 0 1 319.856 432h256.288A47.92 47.92 0 0 1 624 479.856z m-320 0V736.144c0 8.704 7.168 15.856 15.856 15.856h256.288c8.704 0 15.856-7.168 15.856-15.856v-256.288a15.936 15.936 0 0 0-15.856-15.856H319.856a15.936 15.936 0 0 0-15.856 15.856zM448 688m-16 0a16 16 0 1 1 32 0 16 16 0 1 1-32 0ZM448 608m-16 0a16 16 0 1 1 32 0 16 16 0 1 1-32 0ZM528 608m-16 0a16 16 0 1 1 32 0 16 16 0 1 1-32 0ZM888 256h-416a72.016 72.016 0 0 1 0-144h416a72.016 72.016 0 0 1 0 144z m0-112h-416a40.048 40.048 0 0 0-40 40c0 22.08 17.936 40 40 40h416c22.064 0 40-17.952 40-40 0-22.08-17.936-40-40-40zM672 303.34400000000005a16 16 0 0 1 16 16V800.064C688 826.3199999999999 667.152 848 641.2 848h-386.4C228.912 848 208 826.4 208 800.112v-832.224C208-58.32000000000005 228.864-80 254.8-80h386.416C667.104-80 688-58.36800000000005 688-32.03200000000004v85.024a16 16 0 0 1-32 0v-85.024c0-8.896-6.832-15.968-14.8-15.968h-386.4c-7.984 0-14.8 7.088-14.8 15.888V800.112c0 8.848 6.816 15.888 14.8 15.888h386.416c7.984 0 14.784-7.072 14.784-15.936V319.36a16 16 0 0 1 16-16.016zM464 336a143.584 143.584 0 0 0 108.128-48.896 16 16 0 1 1 24.016 21.136A175.552 175.552 0 0 1 464 368c-97.2 0-176-78.8-176-176s78.8-176 176-176c38.56 0 75.28 12.448 105.488 35.104a16 16 0 0 1-19.2 25.6A143.328 143.328 0 0 0 464 48c-79.536 0-144 64.464-144 144s64.464 144 144 144z"  horiz-adv-x="1024" />

    
    <glyph glyph-name="debug" unicode="&#60258;" d="M544 507.488V800a32 32 0 0 1-64 0v-292.512c-55.104-14.272-96-63.904-96-123.488s40.896-109.216 96-123.488v-291.616c0-18.176 14.336-32.896 32-32.896s32 14.72 32 32.928v291.616c55.104 14.272 96 63.904 96 123.488s-40.896 109.184-96 123.456zM223.136 187.74400000000003C223.328 189.18399999999997 224 190.49599999999998 224 192V800a32 32 0 0 1-64 0v-608c0-1.504 0.672-2.816 0.864-4.256A127.744 127.744 0 0 1 64 64a128 128 0 0 1 256 0 127.744 127.744 0 0 1-96.864 123.744zM192 0a64 64 0 1 0 0.032 128.032A64 64 0 0 0 192 0zM960 704a128 128 0 0 1-256 0 127.744 127.744 0 0 1 96.864-123.744c-0.192-1.44-0.864-2.752-0.864-4.256v-608a32 32 0 0 1 64 0V576c0 1.504-0.672 2.816-0.864 4.256A127.744 127.744 0 0 1 960 704z m-128-64a64 64 0 1 0 0.032 128.032A64 64 0 0 0 832 640z"  horiz-adv-x="1024" />

    
    <glyph glyph-name="scene" unicode="&#60257;" d="M592 560h-416c-52.928 0-96-43.072-96-96v-416c0-52.928 43.072-96 96-96h416c52.928 0 96 43.072 96 96v416c0 52.928-43.072 96-96 96z m32-512a32 32 0 0 0-32-32h-416c-17.632 0-32 14.336-32 32v416c0 17.632 14.368 32 32 32h416c17.664 0 32-14.368 32-32v-416zM720 688h-416a32 32 0 0 1 0-64h416c17.664 0 32-14.368 32-32v-416a32 32 0 1 1 64 0v416c0 52.928-43.072 96-96 96zM528 144h-288a32 32 0 1 1 0-64h288a32 32 0 1 1 0 64zM848 816h-416a32 32 0 0 1 0-64h416c17.664 0 32-14.368 32-32v-416a32 32 0 1 1 64 0v416c0 52.928-43.072 96-96 96z"  horiz-adv-x="1024" />

    
    <glyph glyph-name="related-device" unicode="&#60259;" d="M260.096 352H160a32 32 0 0 0-32 32V640h480v-256a32 32 0 0 0-32-32h-54.976a32 32 0 0 1 0-64H576a96 96 0 0 1 96 96V736a96 96 0 0 1-96 96H160a96 96 0 0 1-96-96v-352a96 96 0 0 1 96-96h100.096a32 32 0 0 1 0 64zM128 736a32 32 0 0 0 32 32h416a32 32 0 0 0 32-32v-32H128V736zM864 480h-90.88a32 32 0 0 1 0-64H864a32 32 0 0 0 32-32v-256H416v256a32 32 0 0 0 32 32h63.072a32 32 0 0 1 0 64H448a96 96 0 0 1-96-96v-352a96 96 0 0 1 96-96h416a96 96 0 0 1 96 96V384a96 96 0 0 1-96 96z m32-448a32 32 0 0 0-32-32H448a32 32 0 0 0-32 32v32h480v-32z"  horiz-adv-x="1024" />

    
    <glyph glyph-name="node" unicode="&#60262;" d="M512 384m-192 0a192 192 0 1 1 384 0 192 192 0 1 1-384 0ZM960 384c0 53.6-9.408 105.92-27.616 155.2a32 32 0 0 1-60.032-22.144c15.584-42.24 23.648-87.072 23.648-133.056 0-22.048-2.272-43.552-5.856-64.576A63.808 63.808 0 0 1 832 256c0-18.88 8.32-35.68 21.344-47.392C789.6 84.832 660.832 0 512 0 299.936 0 128 171.93600000000004 128 384c0 22.048 2.272 43.552 5.856 64.576A63.808 63.808 0 0 1 192 512c0 18.88-8.32 35.68-21.344 47.392C234.4 683.168 363.168 768 512 768c33.312 0 65.824-4.736 97.312-12.96A64.064 64.064 0 0 1 736 768a64 64 0 0 1-64 64c-16.256 0-30.944-6.272-42.24-16.256A448.864 448.864 0 0 1 512 832C331.712 832 176.736 725.28 105.664 571.7760000000001A63.872 63.872 0 0 1 64 512c0-12.576 3.744-24.224 10.016-34.112A449.344 449.344 0 0 1 64 384c0-247.424 200.576-448 448-448 180.288 0 335.264 106.72 406.336 260.224A63.872 63.872 0 0 1 960 256c0 12.576-3.744 24.224-10.016 34.112 6.464 30.304 10.016 61.664 10.016 93.888z"  horiz-adv-x="1024" />

    
    <glyph glyph-name="interaction" unicode="&#60265;" d="M948.448 360.51199999999994c-25.856 119.584-111.008 238.24-182.272 217.632-25.504-7.36-45.088-20.832-57.728-39.424-22.976 10.656-46.496 11.68-69.504 1.536a86.112 86.112 0 0 1-40.256-35.52c-26.496 13.408-56.96 13.12-88.896-1.856a107.2 107.2 0 0 1-19.232-11.456c-77.824 109.984-141.408 159.616-198.72 146.624-81.152-18.368-81.152-89.152-19.584-181.856l118.208-182.784c-64.864 12.192-111.776 1.728-139.584-35.424-45.472-60.8 2.656-116.96 114.4-167.232l215.968-96.064a32 32 0 0 1 26.016 58.464l-215.84 96c-43.552 19.584-72.32 37.952-85.568 53.44-7.68 8.96-7.904 11.456-3.712 17.056 15.808 21.12 64.928 21.12 150.56-10.816 28.864-10.784 54.784 21.472 38.048 47.36l-164.96 255.072C284.8 552.992 284.8 570.816 305.984 575.616c28.064 6.336 87.104-49.408 165.536-170.56 5.888-13.888 15.072-28.352 27.392-42.976 25.472-30.272 72.416 3.552 51.776 37.312a2035.2 2035.2 0 0 1-23.04 36.832c0.544 3.744 3.872 6.144 9.312 8.704 22.464 10.528 36.48 6.528 52.192-15.68 17.472-24.64 56.224-13.6 58.048 16.576 1.28 21.184 7.136 31.296 17.536 35.872 8.96 3.936 20.096 0.544 37.472-16a32 32 0 0 1 53.952 20.32c1.472 16.544 9.024 25.248 27.808 30.688 19.712 5.696 83.136-82.688 101.952-169.696 13.536-62.592 13.536-136.992-0.32-223.136a32 32 0 1 1 63.2-10.144c15.008 93.504 15.008 175.776-0.352 246.784zM300.8 0H164.256C144.352 0 128 16.607999999999947 128 37.34400000000005V730.656C128 751.392 144.352 768 164.256 768h375.456C559.648 768 576 751.392 576 730.656a32 32 0 0 1 64 0C640 786.528 595.232 832 539.744 832H164.256C108.768 832 64 786.528 64 730.656v-693.344C64-18.52800000000002 108.768-64 164.256-64H300.8a32 32 0 0 1 0 64z"  horiz-adv-x="1024" />

    
    <glyph glyph-name="data-board" unicode="&#60263;" d="M979.2 737.152a32 32 0 0 1-38.4 23.936l-166.848-38.656a32 32 0 0 1-15.808-53.408L794.56 631.36l-194.56-173.568-101.024 95.68a32 32 0 0 1-45.152-1.152l-216.736-227.264A64 64 0 1 1 288 262.4c0 6.944-1.376 13.472-3.424 19.712l193.536 202.944 99.232-93.952a32 32 0 0 1 43.296-0.64L839.04 585.28l41.504-42.976a32 32 0 0 1 53.92 13.92l44.448 165.408a31.84 31.84 0 0 1 0.288 15.52zM928 445.536a32 32 0 0 1-32-32V160a32 32 0 0 0-32-32H160a32 32 0 0 0-32 32V736a32 32 0 0 0 32 32h530.656a32 32 0 0 1 0 64H160a96 96 0 0 1-96-96v-576a96 96 0 0 1 96-96h704a96 96 0 0 1 96 96v253.536a32 32 0 0 1-32 32zM912 0h-800a32 32 0 0 1 0-64h800a32 32 0 0 1 0 64z"  horiz-adv-x="1024" />

    
    <glyph glyph-name="bluetooth-o" unicode="&#58924;" d="M508.3392-123.96543999999994c-280.0896 0-507.96544 227.87584-507.96544 507.96544s227.87584 507.96544 507.96544 507.96544c280.0896 0 507.96544-227.87584 507.96544-507.96544s-227.87072-507.96544-507.96544-507.96544z m0 978.5088c-259.456 0-470.54336-211.08736-470.54336-470.54336s211.08736-470.54336 470.54336-470.54336c259.456 0 470.54848 211.08736 470.54848 470.54336s-211.08736 470.54336-470.54848 470.54336zM509.95712 32.88063999999997a18.70848 18.70848 0 0 0-18.70848 18.70848v272.25088l-139.12064-139.11552a18.70336 18.70336 0 1 0-26.45504 26.46016l165.57568 165.57568v13.88544l-171.45344 171.45856a18.70336 18.70336 0 1 0 26.45504 26.46016l144.9984-144.99328v272.8448a18.70336 18.70336 0 0 0 31.93344 13.23008l173.70624-173.70112a18.688 18.688 0 0 0 0-26.46016l-145.77152-145.78176 145.47456-145.47456a18.70336 18.70336 0 0 0 0-26.46016l-173.40416-173.40928a18.70336 18.70336 0 0 0-13.23008-5.4784z m18.70848 320.34816v-256.47104l128.2304 128.23552-128.2304 128.23552z m0 318.01856v-257.06496l128.53248 128.53248-128.53248 128.53248z"  horiz-adv-x="1024" />

    
    <glyph glyph-name="fingerprint" unicode="&#58928;" d="M803.8912 416.92672a18.02752 18.02752 0 0 0-17.4848 13.68576c-30.92992 124.43136-142.20288 211.33824-270.61248 211.33824-26.79808 0-53.29408-3.7888-78.74048-11.26912a18.03776 18.03776 0 0 0-10.16832 34.60608 315.22304 315.22304 0 0 0 88.9088 12.72832c145.00864 0 270.67904-98.16064 305.60768-238.70976a18.03776 18.03776 0 0 0-17.5104-22.37952zM218.93632 345.09312a18.03264 18.03264 0 0 0-18.03264 18.03264c0 108.67712 54.91712 208.26112 146.90304 266.38848a18.03264 18.03264 0 1 0 19.26656-30.4896c-81.46944-51.4816-130.10432-139.66848-130.10432-235.89888a18.03264 18.03264 0 0 0-18.03264-18.03264zM726.2976 345.09312a18.03264 18.03264 0 0 0-18.03264 18.03264c0 86.63552-58.30656 163.01056-141.79328 185.73312a18.02752 18.02752 0 1 0 9.46688 34.80064c99.14368-26.97728 168.39168-117.66272 168.39168-220.53376a18.03776 18.03776 0 0 0-18.03264-18.03264zM305.29536 345.09312a18.03264 18.03264 0 0 0-18.03264 18.03264c0 115.24096 86.12864 212.74624 200.3456 226.81088a18.03776 18.03776 0 0 0 4.40832-35.79392c-96.16384-11.83744-168.68352-93.95712-168.68352-191.01184a18.04288 18.04288 0 0 0-18.03776-18.03776zM382.66368 345.09312a18.03264 18.03264 0 0 0-18.03264 18.03264c0 83.3536 67.8144 151.168 151.168 151.168 53.79584 0 103.96672-28.95872 130.93376-75.5712a18.02752 18.02752 0 1 0-31.21664-18.05312c-20.54144 35.5072-58.74688 57.55904-99.712 57.55904-63.46752 0-115.10272-51.6352-115.10272-115.10272a18.04288 18.04288 0 0 0-18.03776-18.03264zM571.12064 345.09312a18.03264 18.03264 0 0 0-18.03264 18.03264c0 20.56192-16.72704 37.28896-37.28896 37.28896s-37.29408-16.72704-37.29408-37.28896a18.03264 18.03264 0 0 0-36.06528 0c0 40.448 32.91136 73.35936 73.35936 73.35936s73.35424-32.91136 73.35424-73.35936a18.03776 18.03776 0 0 0-18.03264-18.03264zM270.44864 205.66528000000005a18.04288 18.04288 0 0 0-15.8976 26.5216 279.26528 279.26528 0 0 1 32.71168 130.944 18.03264 18.03264 0 0 0 36.06528 0 315.4432 315.4432 0 0 0-36.95104-147.91168 18.0224 18.0224 0 0 0-15.92832-9.55392zM314.07616 155.40224a18.03264 18.03264 0 0 0-13.85472 29.56288 279.1168 279.1168 0 0 1 64.4096 178.16064 18.03264 18.03264 0 0 0 36.06528 0 315.22304 315.22304 0 0 0-72.75008-201.22624 18.00192 18.00192 0 0 0-13.87008-6.49728zM403.81952 171.01824a18.03264 18.03264 0 0 0-14.56128 28.65152c34.79552 47.78496 53.18656 104.30976 53.18656 163.456a18.03264 18.03264 0 0 0 36.06528 0c0-66.82624-20.77696-130.688-60.09344-184.68864a18.03776 18.03776 0 0 0-14.59712-7.41888zM425.51808 89.97888a18.03776 18.03776 0 0 0-9.22624 33.54112c84.37248 50.13504 136.79104 141.952 136.79104 239.61088a18.03264 18.03264 0 0 0 36.06528 0c0-110.32064-59.17696-214.016-154.43968-270.6176a17.93024 17.93024 0 0 0-9.1904-2.5344zM551.62368 125.69087999999999a18.0224 18.0224 0 0 0-12.11904 31.3856c58.0864 52.70528 91.40224 127.81056 91.40224 206.04928a18.03264 18.03264 0 0 0 36.06528 0c0-88.39168-37.62688-173.22496-103.22944-232.76032a18.01216 18.01216 0 0 0-12.11904-4.67456zM644.3008 140.59007999999994a18.02752 18.02752 0 0 0-13.04064 30.48448c49.65888 52.00384 77.0048 120.21248 77.0048 192.0512a18.03264 18.03264 0 0 0 36.06528 0c0-81.16224-30.89408-158.208-86.98368-216.96a17.99168 17.99168 0 0 0-13.04576-5.57568zM756.24448 170.98239999999998a18.03776 18.03776 0 0 0-14.58176 28.6208c34.64704 47.7696 52.96128 104.31488 52.96128 163.52256a18.03264 18.03264 0 0 0 36.06528 0c0-66.8672-20.68992-130.73408-59.8272-184.69888a18.0224 18.0224 0 0 0-14.6176-7.44448zM515.80416-105.60000000000002c-269.97248 0-489.61024 219.63264-489.61024 489.6s219.63776 489.6 489.61024 489.6c269.96736 0 489.6-219.63264 489.6-489.6s-219.63776-489.6-489.6-489.6z m0 943.13984c-250.0864 0-453.54496-203.45856-453.54496-453.53984s203.45856-453.53984 453.54496-453.53984c250.07616 0 453.53472 203.45856 453.53472 453.53984s-203.45856 453.53984-453.53472 453.53984z"  horiz-adv-x="1024" />

    
    <glyph glyph-name="close" unicode="&#60266;" d="M548.992 392.256L885.44 728.672a31.968 31.968 0 1 1-45.248 45.248L503.744 437.504 167.328 773.92a31.968 31.968 0 1 1-45.248-45.248l336.416-336.416L122.08 55.84000000000003a31.968 31.968 0 1 1 45.248-45.248l336.416 336.416L840.16 10.559999999999945a31.968 31.968 0 1 1 45.248 45.248L548.992 392.256z"  horiz-adv-x="1024" />

    
    <glyph glyph-name="angle-down-fill" unicode="&#60269;" d="M573.056 144l308.8 404.608A76.8 76.8 0 0 1 820.736 672H203.232a76.8 76.8 0 0 1-61.056-123.392l308.8-404.608a76.8 76.8 0 0 1 122.08 0z"  horiz-adv-x="1024" />

    
    <glyph glyph-name="angle-up-fill" unicode="&#60270;" d="M573.056 624l308.8-404.608A76.8 76.8 0 0 0 820.736 96H203.232a76.8 76.8 0 0 0-61.056 123.392L450.976 624a76.8 76.8 0 0 0 122.08 0z"  horiz-adv-x="1024" />

    
    <glyph glyph-name="building-o" unicode="&#58949;" d="M907 8.899999999999977h-31.7v647c0 9.8-7.1 18-16.5 19.7 0 0 1.2 0 0 0L607.5 795.8c-11 0-20-9-20-20v-767h-38.6v767c0 11-9 20-20 20l-357.8-120c-11 0-20-9-20-20v-647H117c-11 0-20-9-20-20s9-20 20-20h790c11 0 20 9 20 20s-9 20.1-20 20.1zM691.4 667.2c0 5.5 4.5 10 10 10h60c5.5 0 10-4.5 10-10v-60c0-5.5-4.5-10-10-10h-60c-5.5 0-10 4.5-10 10v60z m0-129.1c0 5.5 4.5 10 10 10h60c5.5 0 10-4.5 10-10v-60c0-5.5-4.5-10-10-10h-60c-5.5 0-10 4.5-10 10v60z m0-129c0 5.5 4.5 10 10 10h60c5.5 0 10-4.5 10-10v-60c0-5.5-4.5-10-10-10h-60c-5.5 0-10 4.5-10 10v60z m0-129.1c0 5.5 4.5 10 10 10h60c5.5 0 10-4.5 10-10v-60c0-5.5-4.5-10-10-10h-60c-5.5 0-10 4.5-10 10v60z m0-129c0 5.5 4.5 10 10 10h60c5.5 0 10-4.5 10-10v-60c0-5.5-4.5-10-10-10h-60c-5.5 0-10 4.5-10 10v60zM372.2 667.2c0 5.5 4.5 10 10 10h60c5.5 0 10-4.5 10-10v-60c0-5.5-4.5-10-10-10h-60c-5.5 0-10 4.5-10 10v60z m0-129.1c0 5.5 4.5 10 10 10h60c5.5 0 10-4.5 10-10v-60c0-5.5-4.5-10-10-10h-60c-5.5 0-10 4.5-10 10v60z m0-129c0 5.5 4.5 10 10 10h60c5.5 0 10-4.5 10-10v-60c0-5.5-4.5-10-10-10h-60c-5.5 0-10 4.5-10 10v60z m0-129.1c0 5.5 4.5 10 10 10h60c5.5 0 10-4.5 10-10v-60c0-5.5-4.5-10-10-10h-60c-5.5 0-10 4.5-10 10v60z m0-129c0 5.5 4.5 10 10 10h60c5.5 0 10-4.5 10-10v-60c0-5.5-4.5-10-10-10h-60c-5.5 0-10 4.5-10 10v60zM247.8 538.1c0 5.5 4.5 10 10 10h60c5.5 0 10-4.5 10-10v-60c0-5.5-4.5-10-10-10h-60c-5.5 0-10 4.5-10 10v60z m0-129c0 5.5 4.5 10 10 10h60c5.5 0 10-4.5 10-10v-60c0-5.5-4.5-10-10-10h-60c-5.5 0-10 4.5-10 10v60z m0-129.1c0 5.5 4.5 10 10 10h60c5.5 0 10-4.5 10-10v-60c0-5.5-4.5-10-10-10h-60c-5.5 0-10 4.5-10 10v60z m0-129c0 5.5 4.5 10 10 10h60c5.5 0 10-4.5 10-10v-60c0-5.5-4.5-10-10-10h-60c-5.5 0-10 4.5-10 10v60z"  horiz-adv-x="1024" />

    
    <glyph glyph-name="loading" unicode="&#60288;" d="M480 800a32 32 0 0 0 64 0v-192a32 32 0 0 0-64 0V800z m250.624-60.64a32 32 0 1 0 51.776-37.632l-112.832-155.328a32 32 0 0 0-51.808 37.632l112.864 155.328z m167.136-196.384a32 32 0 1 0 19.776-60.864l-182.624-59.328a32 32 0 0 0-19.776 60.864l182.624 59.328z m19.776-257.088a32 32 0 1 0-19.776-60.864l-182.624 59.328a32 32 0 0 0 19.776 60.864l182.624-59.328zM782.4 66.24000000000001a32 32 0 0 0-51.776-37.632l-112.864 155.328a32 32 0 1 0 51.808 37.632l112.832-155.328zM544-32a32 32 0 0 0-64 0v192a32 32 0 0 0 64 0v-192z m-250.624 60.64a32 32 0 0 0-51.776 37.632l112.832 155.328a32 32 0 0 0 51.808-37.632l-112.864-155.328z m-167.136 196.384a32 32 0 1 0-19.776 60.864l182.624 59.328a32 32 0 0 0 19.776-60.864l-182.624-59.328z m-19.776 257.088a32 32 0 0 0 19.776 60.864l182.624-59.328a32 32 0 1 0-19.776-60.864l-182.624 59.328zM241.6 701.76a32 32 0 1 0 51.776 37.632l112.864-155.328a32 32 0 1 0-51.808-37.632L241.6 701.76z"  horiz-adv-x="1024" />

    
    <glyph glyph-name="send" unicode="&#60296;" d="M166.464 447.296l212.64-128.736a32 32 0 1 0-33.152-54.72l-266.528 161.312a32 32 0 0 0 4.256 56.928l832 347.456a32 32 0 0 0 43.744-35.52l-145.76-768a32 32 0 0 0-48.576-21.056l-270.208 171.328a32 32 0 0 0 34.24 54.08l230.464-146.112L885.44 747.52 166.464 447.296zM416 263.904V0a32 32 0 0 0-64 0v278.624a32 32 0 0 0 11.2 24.32L752.192 636a32 32 0 0 0 41.6-48.64L416 263.93600000000004z"  horiz-adv-x="1024" />

    
    <glyph glyph-name="plus-o" unicode="&#60297;" d="M512-96C246.912-96 32 118.91200000000003 32 384 32 649.088 246.912 864 512 864c265.088 0 480-214.912 480-480 0-265.088-214.912-480-480-480z m0 64c229.76 0 416 186.24 416 416S741.76 800 512 800 96 613.76 96 384s186.24-416 416-416zM256 352a32 32 0 0 0 0 64h512a32 32 0 0 0 0-64H256zM480 640a32 32 0 0 0 64 0v-512a32 32 0 0 0-64 0V640z"  horiz-adv-x="1024" />

    
    <glyph glyph-name="eye" unicode="&#60298;" d="M512 160a224 224 0 1 0 0 448 224 224 0 0 0 0-448z m0 64a160 160 0 1 1 0 320 160 160 0 0 1 0-320zM512 32C323.232 32 154.144 144.736 5.44 366.144a32 32 0 0 0 0 35.712C154.144 623.296 323.2 736 512 736c188.768 0 357.856-112.736 506.56-334.144a32 32 0 0 0 0-35.712C869.856 144.70399999999995 700.8 32 512 32z m0 64c159.84 0 306.72 94.784 441.248 288C818.72 577.216 671.84 672 512 672c-159.84 0-306.72-94.784-441.248-288 134.528-193.216 281.408-288 441.248-288z"  horiz-adv-x="1024" />

    
    <glyph glyph-name="user" unicode="&#60299;" d="M620.256 89.82399999999996a32 32 0 0 0-28.256 31.776v80.736a32 32 0 0 0 13.216 25.92c52.864 38.272 99.168 99.68 124.736 169.152a32 32 0 0 0 19.584 19.2c9.76 3.36 21.536 24.224 32.416 70.72 5.92 25.152-1.024 40.96-16.576 50.4a32 32 0 0 0-15.264 24.48C736.448 714.688 650.144 800 514.24 800c-138.24 0-227.936-88.064-240.672-242.432a32 32 0 0 0-15.04-24.544c-16.416-10.24-22.272-23.36-16.224-44.032 11.392-38.88 23.84-60.352 36.8-68.48a32 32 0 0 0 13.12-16.384c25.088-70.496 72.224-133.536 126.72-173.504a32 32 0 0 0 13.056-25.792V121.60000000000002a32 32 0 0 0-28.256-31.776c-125.12-14.72-212.608-54.4-225.952-88.672 2.304-1.056 5.12-2.176 8.384-3.296 17.184-6.016 43.52-11.52 77.12-16.096 65.504-8.896 155.168-13.76 248.704-13.76s183.2 4.864 248.704 13.76c33.6 4.576 59.936 10.08 77.12 16.096 3.296 1.12 6.08 2.24 8.384 3.296-13.344 34.272-100.832 73.92-225.92 88.64z m35.744 59.776c151.36-22.656 256-79.168 256-157.376C912-74.78399999999999 755.84-96 512-96s-400 21.216-400 88.224c0 78.208 104.64 134.72 256 157.376V189.12c-56.64 45.536-104.576 110.944-132.576 184.128-23.936 19.392-40.928 51.296-54.528 97.792-12.8 43.648 0.064 81.344 30.336 106.592C231.456 755.52 346.336 864 514.24 864c165.6 0 276.992-105.728 298.08-281.44 29.44-24.864 42.72-63.904 31.968-109.856-13.312-56.768-30.848-92.512-58.976-109.632-28.448-70.624-74.976-133.184-129.312-176.576v-36.896z"  horiz-adv-x="1024" />

    
    <glyph glyph-name="cog" unicode="&#60301;" d="M482.88 784l-17.28-90.688-20.64-4.512a309.696 309.696 0 0 1-99.776-41.088l-18.688-11.84-73.28 55.04-44.64-44.64 51.904-76.416-11.392-17.76a310.016 310.016 0 0 1-41.568-99.584l-4.8-21.6-90.72-12.896v-63.104l90.688-17.312 4.512-20.64a309.984 309.984 0 0 1 41.088-99.776l11.84-18.688-55.04-73.28 44.64-44.64 76.416 51.904 17.76-11.392a310.016 310.016 0 0 1 99.584-41.568l21.6-4.8 12.896-90.72h63.104l17.312 90.688 20.64 4.512a309.984 309.984 0 0 1 99.776 41.088l18.688 11.84 73.28-55.04 44.64 44.64-51.904 76.416 11.392 17.76a310.016 310.016 0 0 1 41.568 99.584l4.8 21.6 90.72 12.896V413.12l-90.688 17.312-4.512 20.64a309.984 309.984 0 0 1-41.088 99.776l-11.84 18.688 55.04 73.28-44.64 44.64-76.416-51.904-17.76 11.392a310.144 310.144 0 0 1-99.584 41.568l-21.6 4.8-12.896 90.72H482.88zM410.56 746.144l19.424 101.856h171.584l14.624-102.624c28-8.064 54.848-19.328 80.128-33.568l85.792 58.304 121.344-121.344-62.272-82.88c14.08-25.408 25.152-52.352 32.96-80.416l101.888-19.424v-171.584l-102.624-14.624a373.92 373.92 0 0 0-33.568-80.128l58.304-85.792-121.344-121.344-82.88 62.272c-25.408-14.08-52.352-25.152-80.416-32.96l-19.424-101.888h-171.584l-14.624 102.624a373.92 373.92 0 0 0-80.128 33.568L241.92-2.1119999999999663l-121.344 121.344 62.272 82.88a373.824 373.824 0 0 0-32.96 80.416L48 301.952v171.584l102.624 14.624c8.064 27.968 19.328 54.848 33.568 80.128L125.888 654.08l121.344 121.344 82.88-62.272a373.856 373.856 0 0 0 80.416 32.96zM512 192a192 192 0 1 0 0 384 192 192 0 0 0 0-384z m0 64a128 128 0 1 1 0 256 128 128 0 0 1 0-256z"  horiz-adv-x="1024" />

    
    <glyph glyph-name="pie-chart" unicode="&#60309;" d="M896 416c-1.344 0-2.464-0.608-3.744-0.768-1.28 0.16-2.432 0.768-3.744 0.768H544V764c0 0.704-0.352 1.312-0.416 2.016 0.064 0.672 0.416 1.28 0.416 1.984a32 32 0 0 1-32 32C282.624 800 96 613.376 96 384s186.624-416 416-416 416 186.624 416 416a32 32 0 0 1-32 32zM512 32C317.92 32 160 189.91999999999996 160 384 160 567.296 300.864 718.144 480 734.3679999999999V384a32 32 0 0 1 32-32h350.368C846.144 172.86400000000003 695.296 32 512 32zM625.664 717.28a355.36 355.36 0 0 0 216.832-211.84 32 32 0 1 1 60.064 22.048 414.24 414.24 0 0 1-256.224 250.336 31.968 31.968 0 1 1-20.672-60.544z"  horiz-adv-x="1024" />

    
    <glyph glyph-name="dashboard" unicode="&#60308;" d="M512 768C264.96 768 64 567.04 64 320c0-100.544 32.544-195.52 94.08-274.688a31.968 31.968 0 1 1 50.528 39.232A380.384 380.384 0 0 0 128 320C128 531.744 300.256 704 512 704s384-172.256 384-384c0-86.144-27.872-167.584-80.64-235.456a31.904 31.904 0 0 1 5.632-44.864 31.84 31.84 0 0 1 44.864 5.632A443.264 443.264 0 0 1 960 320c0 247.04-200.96 448-448 448zM512 544a32 32 0 0 1 32 32V640a32 32 0 1 1-64 0v-64a32 32 0 0 1 32-32zM241.888 474.528a32 32 0 1 1-35.776-53.056l53.056-35.776a31.936 31.936 0 0 1 44.416 8.64 32 32 0 0 1-8.64 44.416l-53.056 35.776zM810.848 472.064a32 32 0 0 1-45.152 3.168l-48.32-41.984a32 32 0 0 1 41.984-48.32l48.32 41.984a32 32 0 0 1 3.168 45.152zM607.392 160c0 2.592 0.288 5.12-0.352 7.744l-64 256c-0.352 1.44-1.28 2.496-1.824 3.84-0.864 2.144-1.632 4.256-2.944 6.176-1.12 1.664-2.528 2.944-3.904 4.352-1.504 1.536-2.912 3.008-4.704 4.224-1.76 1.184-3.712 1.888-5.664 2.688-1.44 0.608-2.624 1.6-4.224 1.984-0.512 0.128-0.992-0.032-1.504 0.064-2.048 0.416-4.128 0.288-6.272 0.288-2.112 0-4.192 0.128-6.24-0.288-0.512-0.096-1.024 0.064-1.536-0.064-1.632-0.416-2.848-1.44-4.352-2.08-1.888-0.8-3.744-1.472-5.472-2.592-1.888-1.248-3.36-2.816-4.928-4.384-1.344-1.344-2.656-2.592-3.744-4.192-1.312-1.92-2.08-4-2.944-6.144-0.544-1.344-1.472-2.432-1.856-3.872l-64-256c-0.672-2.624-0.352-5.184-0.352-7.744H416c0-1.408 0.352-2.688 0.416-4.096l0.128-1.312C419.424 104.22400000000005 460.928 64 512 64s92.576 40.224 95.456 90.592l0.128 1.312c0.064 1.376 0.416 2.688 0.416 4.096h-0.608zM512 128a31.808 31.808 0 0 0-31.552 29.824L512 284.096l31.552-126.24A31.776 31.776 0 0 0 512 128z"  horiz-adv-x="1024" />

    
    </font>
</defs>
</svg>
